<?xml version="1.0" encoding="UTF-8" standalone="no"?>
<!-- Created with Inkscape (http://www.inkscape.org/) -->

<svg
   xmlns:dc="http://purl.org/dc/elements/1.1/"
   xmlns:cc="http://creativecommons.org/ns#"
   xmlns:rdf="http://www.w3.org/1999/02/22-rdf-syntax-ns#"
   xmlns:svg="http://www.w3.org/2000/svg"
   xmlns="http://www.w3.org/2000/svg"
   xmlns:xlink="http://www.w3.org/1999/xlink"
   xmlns:sodipodi="http://sodipodi.sourceforge.net/DTD/sodipodi-0.dtd"
   xmlns:inkscape="http://www.inkscape.org/namespaces/inkscape"
   id="svg2"
   version="1.1"
   inkscape:version="0.92.4 (5da689c313, 2019-01-14)"
   width="2316"
   height="2224"
   sodipodi:docname="TwilightPC.svg"
   enable-background="new">
  <metadata
     id="metadata8">
    <rdf:RDF>
      <cc:Work
         rdf:about="">
        <dc:format>image/svg+xml</dc:format>
        <dc:type
           rdf:resource="http://purl.org/dc/dcmitype/StillImage" />
        <dc:title />
      </cc:Work>
    </rdf:RDF>
  </metadata>
  <defs
     id="defs6">
    <clipPath
       clipPathUnits="userSpaceOnUse"
       id="clipPath3876">
      <use
         x="0"
         y="0"
         xlink:href="#path3839"
         id="use3878"
         width="1"
         height="1" />
    </clipPath>
    <clipPath
       clipPathUnits="userSpaceOnUse"
       id="clipPath4321">
      <path
         style="fill:#293573;fill-opacity:1;stroke:#121e4f;stroke-width:8;stroke-miterlimit:4;stroke-opacity:1;stroke-dasharray:none"
         d="m 1018.75,124 c -71.875,6.25 -156.25,14.0625 -185.9375,51.5625 -29.6875,37.5 -21.875,107.8125 -21.875,107.8125 0,0 29.48221,13.4024 61.6875,23.53125 -3.52555,15.04276 -5.22721,32.19975 -3.875,51.46875 6.25,89.0625 40.625,117.1875 53.125,153.125 12.5,35.9375 39.0625,104.68749 31.25,142.1875 -7.8125,37.5 -40.625,62.5 -75,65.625 -34.375,3.125 -135.9375,-37.5 -135.9375,-37.5 0,0 -3.125,46.875 -1.5625,70.3125 1.5625,23.4375 4.6875,37.5 4.6875,37.5 0,0 62.5,3.125 106.25,-1.5625 43.75,-4.6875 134.375,-34.375 134.375,-34.375 0,0 -62.5,57.8125 -126.5625,81.25 -64.0625,23.4375 -112.5,23.4375 -112.5,23.4375 0,0 20.3125,78.125 45.3125,126.5625 25,48.4375 50,81.25 50,81.25 0,0 128.125,-70.3125 179.6875,-120.3125 51.5625,-50 96.875,-73.4375 146.875,-239.0625 50,-165.62501 3.125,-331.25 -7.8125,-370.3125 -3.3742,-12.05056 -7.217,-24.40111 -11.4375,-36.3125 15.1545,-1.84571 26.1727,-3.386 30.1875,-4.3125 C 1200,291.1875 1234.375,249 1234.375,249 c 0,0 -10.9375,4.6875 -26.5625,-3.125 -7.9156,-3.9578 -17.4235,-19.95196 -26.3125,-37.40625 -3.4849,21.49036 -10.8514,46.10902 -18.2188,60.84375 -11.7188,23.4375 -35.9374,35.9375 -35.9374,35.9375 l -14.0626,-50.78125 c 0,0 -14.8438,-32.03125 -14.0624,-76.5625 0.2399,-13.67556 2.7195,-29.04701 6,-43.78125 -3.2802,-0.76365 -6.5959,-1.53358 -9.9063,-2.3125 -26.5625,-6.25 -39.0625,-6.25 -76.5625,-7.8125 z"
         id="path4323"
         inkscape:connector-curvature="0" />
    </clipPath>
  </defs>
  <sodipodi:namedview
     pagecolor="#ffffff"
     bordercolor="#666666"
     borderopacity="1"
     objecttolerance="10"
     gridtolerance="10"
     guidetolerance="10"
     inkscape:pageopacity="0"
     inkscape:pageshadow="2"
     inkscape:window-width="1536"
     inkscape:window-height="841"
     id="namedview4"
     showgrid="false"
     borderlayer="true"
     inkscape:zoom="0.16"
     inkscape:cx="255.9818"
     inkscape:cy="1841.7068"
     inkscape:window-x="-8"
     inkscape:window-y="-8"
     inkscape:window-maximized="1"
     inkscape:current-layer="layer13" />
  <g
     inkscape:groupmode="layer"
     id="layer2"
     inkscape:label="Legs">
    <path
       style="fill:#e9bcfe;fill-opacity:1;stroke:#a265b3;stroke-opacity:1;stroke-width:8;stroke-miterlimit:4;stroke-dasharray:none"
       d="m 903.125,1145.875 c 0,0 -21.875,85.9375 -37.5,181.25 -15.625,95.3125 -17.96875,121.0938 -19.53125,167.9688 -1.5625,46.875 3.90625,64.8437 19.53125,69.5312 15.625,4.6875 43.75,-45.3125 57.8125,-70.3125 14.0625,-25 34.375,-71.875 56.25,-134.375 21.875,-62.5 39.0625,-164.0625 37.5,-184.375 -1.5625,-20.3125 -35.9375,-45.3125 -62.5,-54.6875 -26.5625,-9.375 -42.1875,-4.6875 -51.5625,25 z"
       id="path3786"
       inkscape:connector-curvature="0"
       sodipodi:nodetypes="csssssssc" />
    <path
       style="fill:#e9bcfe;fill-opacity:1;stroke:#a265b3;stroke-width:8;stroke-linecap:butt;stroke-linejoin:miter;stroke-miterlimit:4;stroke-opacity:1;stroke-dasharray:none;stroke-dashoffset:14.4"
       d="m 1067.9688,1176.3437 c 0,0 1.5625,100 9.375,157.0313 7.8125,57.0312 34.375,122.6562 46.875,148.4375 12.5,25.7812 78.125,-8.5938 78.9062,-21.875 0.7813,-13.2813 5.4688,-77.3438 0.7813,-144.5313 -4.6875,-67.1875 -10.9375,-110.1562 -17.1875,-140.625 -6.25,-30.4687 -119.5313,-48.4375 -118.75,1.5625 z"
       id="path3792"
       inkscape:connector-curvature="0" />
    <path
       style="fill:#de2c8d;fill-opacity:1;stroke:#ac096c;stroke-width:8;stroke-linecap:butt;stroke-linejoin:miter;stroke-miterlimit:4;stroke-opacity:1;stroke-dasharray:none;stroke-dashoffset:14.40000000000000000"
       d="m 888.3029,1477.1185 c -48.61359,3.3145 -54.13787,11.0485 -67.39612,19.8873 -13.25825,8.8389 -17.67767,16.5729 -17.67767,20.9923 0,4.4194 18.78253,27.6213 18.78253,27.6213 0,0 -9.94369,36.4602 -12.1534,47.5088 -2.20971,11.0485 -2.20971,14.3631 -6.62913,18.7825 -4.41942,4.4194 -27.62136,23.2019 -28.72621,32.0408 -1.10486,8.8388 5.52427,18.7825 12.1534,30.9359 6.62912,12.1534 11.04854,25.4116 32.04077,35.3553 20.99224,9.9437 102.75146,1.1049 117.11456,-4.4194 14.36311,-5.5243 37.56505,-26.5165 38.66991,-36.4602 1.10485,-9.9437 -23.20195,-47.5087 -26.51651,-62.9767 -3.31456,-15.4679 0,-62.9767 0,-62.9767 0,0 11.04855,-4.4194 12.1534,-9.9437 1.10485,-5.5242 -1.10485,-27.6213 -7.73398,-34.2505 -6.62913,-6.6291 -33.14563,-19.8873 -64.08155,-22.097 z"
       id="path3794"
       inkscape:connector-curvature="0" />
    <path
       style="fill:#ac096c;fill-opacity:1;stroke:none;stroke-width:8;stroke-linecap:butt;stroke-linejoin:miter;stroke-miterlimit:4;stroke-opacity:1;stroke-dasharray:none;stroke-dashoffset:14.40000000000000000"
       d="m 819.2495,1541.2 c 0,0 6.0767,-9.3913 35.90777,-11.0485 29.83106,-1.6573 51.37572,10.4961 51.37572,10.4961 0,0 -29.27864,-6.0767 -46.95631,-5.5243 -17.67767,0.5524 -38.11747,10.4961 -38.11747,10.4961 z"
       id="path3796"
       inkscape:connector-curvature="0" />
    <path
       style="fill:#5f1e84;fill-opacity:1;stroke:#400f55;stroke-width:8;stroke-miterlimit:4;stroke-opacity:1;stroke-dasharray:none"
       d="m 815.93494,1646.1612 c 0,0 -63.52913,193.9019 -74.02524,212.6844 -10.49612,18.7826 -38.11748,63.5292 -38.11748,72.368 0,8.8388 2.76214,36.4602 36.46019,65.1864 33.69806,28.7262 123.74369,35.9078 138.65923,30.3835 14.91553,-5.5243 74.02524,-73.4728 76.78737,-93.9126 2.76214,-20.4398 -8.83883,-135.8971 -11.60097,-171.2524 -2.76213,-35.3554 -13.81067,-108.2758 -13.81067,-108.2758 0,0 -25.96408,-20.9922 -57.45243,-21.5446 -31.48835,-0.5525 -56.9,14.3631 -56.9,14.3631 z"
       id="path3798"
       inkscape:connector-curvature="0"
       sodipodi:nodetypes="csssssscsc" />
    <path
       style="fill:#400f55;fill-opacity:1;stroke:none;stroke-width:8;stroke-linecap:butt;stroke-linejoin:miter;stroke-miterlimit:4;stroke-opacity:1;stroke-dasharray:none;stroke-dashoffset:14.40000000000000000"
       d="m 784.99902,1882.6 c -28.17379,28.1738 -40.87962,40.3272 -42.5369,54.1379 -1.65728,13.8106 1.10486,16.5728 4.97185,22.6495 3.86699,6.0767 126.50582,39.2223 134.79223,36.4602 8.28641,-2.7622 20.4398,-25.9641 23.75437,-39.7748 3.31456,-13.8107 3.86699,-18.7825 0,-30.9359 -3.86699,-12.1534 -17.12525,-41.432 -20.99224,-44.7466 -3.86699,-3.3146 -49.71844,-13.2583 -58.55728,-13.8107 -8.83883,-0.5524 -28.17378,2.7622 -41.43203,16.0204 z"
       id="path3800"
       inkscape:connector-curvature="0" />
    <path
       style="fill:#ac096c;fill-opacity:1;stroke:none"
       d="m 796.04756,1652.7903 c 0,0 26.5165,-25.9641 75.68252,-24.8592 49.16602,1.1048 82.86408,40.3272 82.86408,40.3272 0,0 -41.98447,-29.8311 -76.23495,-32.0408 -34.25049,-2.2097 -82.31165,16.5728 -82.31165,16.5728 z"
       id="path3802"
       inkscape:connector-curvature="0" />
    <path
       style="fill:#1f1f1f;fill-opacity:1;stroke:#000000;stroke-opacity:1;stroke-width:8;stroke-miterlimit:4;stroke-dasharray:none"
       d="m 897.69416,1916.2981 c 0,0 -12.1534,-27.6214 -16.57282,-30.3835 -4.41941,-2.7622 -40.87961,-11.601 -53.033,-12.7059 -12.1534,-1.1048 -20.99224,0 -27.62136,4.9719 -6.62913,4.9718 -39.77476,45.299 -41.43204,53.5854 -1.65728,8.2864 4.41942,41.4321 4.41942,41.4321 0,0 -34.80292,32.0407 -36.4602,41.9844 -1.65728,9.9437 -9.94369,67.9486 -5.52427,77.3398 4.41942,9.3913 20.99223,34.8029 28.17379,39.2224 7.18155,4.4194 55.79514,10.4961 70.15825,11.6009 14.3631,1.1049 25.96407,-0.5524 29.83107,-3.867 3.86699,-3.3145 30.93592,-69.6058 33.14563,-78.997 2.2097,-9.3913 -14.91554,-46.9564 -14.91554,-50.8233 0,-3.867 4.41942,-23.7544 4.41942,-23.7544 l 11.60097,1.6573 z"
       id="path3804"
       inkscape:connector-curvature="0" />
    <path
       style="fill:#07000b;fill-opacity:1;stroke:none;stroke-width:8;stroke-linecap:butt;stroke-linejoin:miter;stroke-miterlimit:4;stroke-opacity:1;stroke-dasharray:none;stroke-dashoffset:14.40000000000000000"
       d="m 789.0625,1961.8906 -12.89062,35.1563 88.28125,17.9687 8.20312,-34.7656 z"
       id="path3806"
       inkscape:connector-curvature="0" />
    <path
       style="fill:#400f55;fill-opacity:1;stroke:none"
       d="m 856.25,1864.625 c -24.21875,-3.125 -39.84375,-5.4688 -55.46875,2.3437 -15.625,7.8125 -50.78125,53.125 -57.03125,62.5 -6.25,9.375 2.34375,31.25 2.34375,31.25 0,0 -4.6875,-22.6562 10.9375,-40.625 15.625,-17.9687 41.40625,-43.75 55.46875,-46.875 14.0625,-3.125 25.78125,-5.4687 40.625,0 14.84375,5.4688 25.78125,4.6875 32.03125,10.1563 6.25,5.4687 18.75,35.9375 21.09375,48.4375 2.34375,12.5 -2.34375,40.625 -2.34375,40.625 0,0 7.8125,-24.2188 9.375,-33.5938 1.5625,-9.375 -14.0625,-57.0312 -23.4375,-64.8437 -9.375,-7.8125 -17.1875,-8.5938 -33.59375,-9.375 z"
       id="path3812"
       inkscape:connector-curvature="0" />
    <path
       style="fill:#4c4c4c;fill-opacity:1;stroke:none"
       d="m 853.51563,1892.3594 c -25.78125,-4.6875 -42.96875,-9.7657 -46.48438,-8.2032 -3.51562,1.5625 -17.96875,20.7032 -23.82812,37.8907 -5.85938,17.1875 -2.73438,38.2812 0,43.3593 2.73437,5.0782 92.1875,24.2188 97.65625,22.6563 5.46875,-1.5625 14.84375,-27.3438 17.57812,-40.625 2.73438,-13.2813 2.73438,-32.8125 0.39063,-37.8906 -2.34375,-5.0782 -30.85938,-14.4532 -45.3125,-17.1875 z"
       id="path3808"
       inkscape:connector-curvature="0" />
    <path
       style="fill:#4c4c4c;fill-opacity:1;stroke:none"
       d="m 775.78125,1988.4531 49.60938,8.2031 c -24.60938,-5.4687 -44.14063,-12.5 -50.78125,-8.9843 -6.64063,3.5156 -33.59375,64.0625 -34.375,75.7812 -0.78125,11.7188 8.98437,60.5469 13.28125,66.4063 4.29687,5.8593 85.54687,12.8906 92.57812,10.1562 7.03125,-2.7344 36.71875,-77.3437 37.5,-84.7656 0.78125,-7.4219 -14.0625,-45.7031 -18.35937,-50 -4.29688,-4.2969 -30.07813,-6.6406 -89.45313,-16.7969 z"
       id="path3810"
       inkscape:connector-curvature="0" />
    <path
       style="fill:#de2c8d;fill-opacity:1;stroke:#ac096c;stroke-opacity:1;stroke-width:8;stroke-miterlimit:4;stroke-dasharray:none"
       d="m 1165.625,1464.625 c -31.25,9.375 -43.75,17.1875 -55.4687,29.6875 -11.7188,12.5 -14.0625,20.3125 -12.5,26.5625 1.5625,6.25 10.1562,14.0625 15.625,18.75 5.4687,4.6875 11.7187,6.25 11.7187,6.25 0,0 8.5938,62.5 8.5938,68.75 0,6.25 -17.9688,46.0937 -15.625,52.3437 2.3437,6.25 24.2187,25.7813 38.2812,31.25 14.0625,5.4688 113.2813,-14.0625 118.75,-18.75 5.4688,-4.6875 14.8438,-21.0937 14.8438,-28.125 0,-7.0312 -6.25,-17.1875 -9.375,-22.6562 -3.125,-5.4688 -27.3438,-29.6875 -30.4688,-35.9375 -3.125,-6.25 -15.625,-61.7188 -14.8437,-67.9688 0.7812,-6.25 11.7187,-28.9062 9.375,-38.2812 -2.3438,-9.375 -22.6563,-22.6563 -39.0625,-25.7813 -16.4063,-3.125 -26.5625,0 -39.8438,3.9063 z"
       id="path3814"
       inkscape:connector-curvature="0" />
    <path
       style="fill:#ac096c;fill-opacity:0.97225708;stroke:none;stroke-width:8;stroke-linecap:butt;stroke-linejoin:miter;stroke-miterlimit:4;stroke-opacity:1;stroke-dasharray:none;stroke-dashoffset:14.40000000000000000"
       d="m 1235.2272,1521.8651 c 0,0 -18.7826,-6.0767 -34.8029,-4.9719 -16.0204,1.1049 -43.0894,20.9922 -43.0894,20.9922 0,0 28.7262,-13.8106 43.6418,-13.2582 14.9155,0.5524 36.4602,5.5243 36.4602,5.5243 z"
       id="path3816"
       inkscape:connector-curvature="0" />
    <path
       style="fill:#5f1e84;fill-opacity:1;stroke:#400f55;stroke-opacity:1;stroke-width:8;stroke-miterlimit:4;stroke-dasharray:none"
       d="m 1208.5938,1638.0625 c -35.1563,7.0312 -57.0313,17.1875 -57.0313,17.1875 0,0 10.1563,46.875 11.7188,75 1.5625,28.125 -3.125,73.4375 -13.2813,131.25 -10.1562,57.8125 -8.5937,61.7187 -7.8125,68.75 0.7813,7.0312 17.9688,40.625 33.5938,57.8125 15.625,17.1875 30.4687,32.0312 47.6562,38.2812 17.1875,6.25 110.9375,-27.3437 121.875,-43.75 10.9375,-16.4062 19.5313,-52.3437 22.6563,-73.4375 3.125,-21.0937 3.125,-34.375 -3.125,-51.5625 -6.25,-17.1875 -34.375,-61.7187 -45.3125,-85.9375 -10.9375,-24.2187 -60.1563,-126.5625 -60.1563,-126.5625 0,0 -28.125,-10.9375 -50.7812,-7.0312 z"
       id="path3818"
       inkscape:connector-curvature="0" />
    <path
       style="fill:#ac096c;fill-opacity:1;stroke:none"
       d="m 1136.7188,1668.5312 c 0,0 0,-27.3437 65.625,-36.7187 65.625,-9.375 74.2187,25.7812 74.2187,25.7812 0,0 -36.1125,-20.8722 -71.0936,-15.625 -46.8751,7.0313 -68.7501,26.5625 -68.7501,26.5625 z"
       id="path3820"
       inkscape:connector-curvature="0"
       sodipodi:nodetypes="cscsc" />
    <path
       style="fill:#400f55;fill-opacity:1;stroke:none"
       d="m 1233.5938,1834.1562 c -10.9375,2.3438 -33.5938,21.875 -37.5,29.6875 -3.9063,7.8125 -14.0625,80.4688 -13.2813,89.8438 0.7813,9.375 26.5625,42.1875 35.1563,46.875 8.5937,4.6875 95.3125,-27.3438 100.7812,-39.0625 5.4688,-11.7188 14.0625,-54.6875 9.375,-71.0938 -4.6875,-16.4062 -30.4687,-44.5312 -51.5625,-50.7812 -21.0937,-6.25 -31.25,-8.5938 -42.9687,-5.4688 z"
       id="path3822"
       inkscape:connector-curvature="0" />
    <path
       style="fill:#1f1f1f;fill-opacity:1;stroke:#000000;stroke-opacity:1;stroke-width:8;stroke-miterlimit:4;stroke-dasharray:none"
       d="m 1239.8438,1843.5312 c -26.5625,7.0313 -37.5,11.7188 -41.4063,18.75 -3.9062,7.0313 -7.0312,76.5625 -4.6875,83.5938 2.3438,7.0312 20.3125,33.5937 23.4375,35.9375 3.125,2.3437 10.1563,-1.5625 10.1563,-1.5625 l 3.125,15.625 -7.0313,3.125 c 0,0 1.5625,68.75 6.25,80.4687 4.6875,11.7188 35.1563,43.75 46.875,46.0938 11.7188,2.3437 54.6875,-16.4063 63.2813,-21.875 8.5937,-5.4688 18.75,-46.875 18.75,-57.0313 0,-10.1562 -10.1563,-56.25 -15.625,-67.1875 -5.4688,-10.9375 -21.875,-21.875 -25,-25 -3.125,-3.125 0,-51.5625 -5.4688,-71.0937 -5.4687,-19.5313 -10.9375,-26.5625 -22.6562,-35.1563 -11.7188,-8.5937 -35.9375,-7.8125 -50,-4.6875 z"
       id="path3824"
       inkscape:connector-curvature="0" />
    <path
       style="fill:#07000b;fill-opacity:1;stroke:#000000;stroke-width:8;stroke-linecap:butt;stroke-linejoin:miter;stroke-miterlimit:4;stroke-opacity:1;stroke-dasharray:none;stroke-dashoffset:14.40000000000000000"
       d="m 1224.2188,1970.0937 10.1562,43.75 77.3438,-25 -13.2813,-41.4062 z"
       id="path3826"
       inkscape:connector-curvature="0" />
    <path
       style="fill:#4c4c4c;fill-opacity:1;stroke:none;stroke-width:8;stroke-linecap:butt;stroke-linejoin:miter;stroke-miterlimit:4;stroke-opacity:1;stroke-dasharray:none;stroke-dashoffset:14.40000000000000000"
       d="m 1236.7188,1862.2812 c -21.875,5.4688 -38.2813,9.375 -40.625,16.4063 -2.3438,7.0312 1.5625,56.25 1.5625,65.625 0,9.375 15.625,36.7187 21.875,35.9375 6.25,-0.7813 71.875,-17.9688 78.125,-21.0938 6.25,-3.125 4.6875,-44.5312 3.125,-54.6875 -1.5625,-10.1562 -16.4063,-39.0625 -23.4375,-41.4062 -7.0313,-2.3438 -30.4688,-3.9063 -40.625,-0.7813 z"
       id="path3828"
       inkscape:connector-curvature="0" />
    <path
       style="fill:#4c4c4c;fill-opacity:1;stroke:none"
       d="m 1270.3125,1982.5937 c -32.8125,10.1563 -42.1875,9.375 -45.3125,14.0625 -3.125,4.6875 1.5625,71.0938 3.9063,78.125 2.3437,7.0313 39.8437,47.6563 47.6562,50 7.8125,2.3438 52.3438,-13.2812 58.5938,-20.3125 6.25,-7.0312 -0.7813,-94.5312 -3.9063,-100.7812 -3.125,-6.25 -21.875,-26.5625 -30.4687,-27.3438 -8.5938,-0.7812 -17.1875,2.3438 -30.4688,6.25 z"
       id="path3830"
       inkscape:connector-curvature="0" />
    <path
       style="fill:#400f55;fill-opacity:1;stroke:none"
       d="m 1235.2272,1825.7 c -24.8593,7.1816 -39.7748,19.8874 -46.4039,40.3272 -6.6291,20.4398 -9.9437,81.7592 -9.3913,88.3883 0.5524,6.6292 20.4398,27.6214 20.4398,27.6214 0,0 -13.2582,-22.6495 -13.8107,-40.3272 -0.5524,-17.6777 6.6292,-75.1301 14.9156,-82.8641 8.2864,-7.7339 17.6776,-19.3349 33.698,-21.5446 16.0204,-2.2097 37.5651,0 50.8233,9.9437 13.2583,9.9437 37.5651,32.0407 39.2224,43.0893 1.6572,11.0485 -0.5525,49.166 -0.5525,49.166 0,0 12.7059,-35.9078 13.2583,-48.6136 0.5524,-12.7058 -19.335,-35.3553 -37.5651,-46.9563 -18.2301,-11.601 -41.9844,-24.8592 -64.6339,-18.2301 z"
       id="path3832"
       inkscape:connector-curvature="0" />
  </g>
  <g
     inkscape:groupmode="layer"
     id="layer3"
     inkscape:label="skirt">
    <g
       id="g3954">
      <g
         id="g3950">
        <path
           style="fill:#7624a1;fill-opacity:1;stroke:#3c164a;stroke-opacity:1;stroke-width:8;stroke-miterlimit:4;stroke-dasharray:none"
           d="M 940.625,966.1875 C 934.375,969.3125 800,1183.375 800,1183.375 c 0,0 29.6875,-3.125 43.75,1.5625 14.0625,4.6875 54.6875,35.9375 54.6875,35.9375 l 87.5,-254.6875 z"
           id="path3835"
           inkscape:connector-curvature="0" />
        <path
           style="fill:#7624a1;fill-opacity:1;stroke:#3c164a;stroke-width:8;stroke-linecap:butt;stroke-linejoin:miter;stroke-miterlimit:4;stroke-opacity:1;stroke-dasharray:none;stroke-dashoffset:14.4"
           d="m 1111.4835,948.99808 c -1.1049,4.41942 57.4524,247.48742 57.4524,247.48742 0,0 17.6777,-27.6214 35.3553,-29.8311 17.6777,-2.2097 35.3554,-5.5243 35.3554,-5.5243 l -85.0738,-230.91454 z"
           id="path3837"
           inkscape:connector-curvature="0" />
      </g>
      <path
         sodipodi:nodetypes="cscscsccscsscsccscscscc"
         inkscape:connector-curvature="0"
         id="path3839"
         d="m 922.55338,942.36895 c 0,0 -75.13009,138.10675 -107.17087,173.46215 -32.04078,35.3553 -50.8233,44.1942 -50.8233,44.1942 0,0 6.62913,12.1534 16.57282,22.097 9.94368,9.9437 28.72621,16.5729 28.72621,16.5729 0,0 30.93592,-68.501 58.55728,-104.9612 27.62136,-36.4602 97.22718,-131.47767 97.22718,-131.47767 l 12.1534,1.10486 c 0,0 -54.13786,72.92041 -76.23495,132.58251 -22.09709,59.6621 -51.92816,128.1631 -51.92816,128.1631 0,0 35.35534,18.7825 96.12233,26.5165 60.76698,7.734 107.17088,13.2583 180.09128,-16.5728 72.9204,-29.8311 71.8155,-37.565 71.8155,-37.565 0,0 -26.5165,-109.3806 -37.565,-149.1554 -11.0486,-39.7747 -29.8311,-103.85629 -29.8311,-103.85629 l 13.2583,-5.52427 c 0,0 25.4116,70.71066 44.1941,129.26796 18.7825,58.5573 37.5651,118.2194 37.5651,118.2194 0,0 27.6213,-23.2019 38.6699,-36.4602 11.0485,-13.2582 22.0971,-35.3553 22.0971,-35.3553 0,0 -28.7263,-68.501 -54.1379,-100.5418 -25.4117,-32.04074 -89.4932,-113.79996 -89.4932,-113.79996 -72.936,21.14627 -145.13286,31.95885 -219.86602,43.08931 z"
         style="fill:#611f88;fill-opacity:1;stroke:#3c164a;stroke-width:8;stroke-linecap:butt;stroke-linejoin:miter;stroke-miterlimit:4;stroke-opacity:1;stroke-dasharray:none;stroke-dashoffset:14.40000000000000000" />
      <g
         transform="translate(0.55242717,0)"
         clip-path="url(#clipPath3876)"
         id="g3867"
         inkscape:groupmode="maskhelper">
        <g
           id="g3857">
          <g
             id="g3849">
            <path
               style="fill:#ffffff;fill-opacity:1;stroke:none"
               d="m 1147.9437,1015.2893 c -4.4194,0 -46.4039,0 -46.4039,0 l 38.6699,60.767 14.3631,-33.1456 z"
               id="path3841"
               inkscape:connector-curvature="0" />
            <path
               style="fill:#ffffff;fill-opacity:1;stroke:none"
               d="m 1150.1534,1125.7748 2.2097,60.767 25.4116,-44.1942 z"
               id="path3843"
               inkscape:connector-curvature="0" />
            <path
               style="fill:#ffffff;fill-opacity:1;stroke:none"
               d="m 1207.6058,1122.4602 49.7184,5.5243 -34.2504,-50.8233 z"
               id="path3845"
               inkscape:connector-curvature="0" />
            <path
               style="fill:#ffffff;fill-opacity:1;stroke:none"
               d="m 1182.1942,963.36119 -11.0486,71.81551 34.2505,-13.2582 z"
               id="path3847"
               inkscape:connector-curvature="0" />
          </g>
          <path
             inkscape:connector-curvature="0"
             id="path3855"
             d="m 1133.5806,1052.8544 c -1.1049,-4.4194 8.8388,-102.75146 8.8388,-102.75146 l 49.7184,62.97666 22.0971,-56.34754 0,96.12234 58.5573,30.9359 -45.299,15.468 -2.2097,125.9534 -66.2913,-86.1787 -33.1456,50.8233 14.3631,-90.598 -60.767,-57.4525 z"
             style="fill:#db2c8c;fill-opacity:1;stroke:none" />
        </g>
      </g>
    </g>
    <path
       id="path4140"
       d="m 1092.1816,1172.7908 -1.099,22.7663 -19.9964,-0.7157 16.5972,9.2436 -10.8219,15.614 17.6328,-9.4583 11.0232,19.95 1.0989,-22.7663 19.9965,0.7156 -16.6153,-9.2394 10.84,-15.6181 -17.6327,9.4582 -11.0233,-19.9499 z"
       style="fill:#ffffff;fill-opacity:1;stroke:none;display:inline"
       inkscape:connector-curvature="0" />
    <path
       inkscape:connector-curvature="0"
       style="fill:#ffffff;fill-opacity:1;stroke:none;display:inline"
       d="m 1075.6898,987.26089 -5.9513,20.73731 -18.2684,-4.9973 13.2865,12.1171 -13.3578,12.0383 18.2977,-4.8893 5.8285,20.7722 5.9512,-20.7374 18.2685,4.9972 -13.3042,-12.1171 13.3754,-12.0382 -18.2976,4.8893 -5.8285,-20.77211 z"
       id="path3975" />
    <path
       id="path3977"
       d="m 1276.4299,1075.4607 -1.1217,21.5452 -18.9247,-0.7491 15.6767,8.8089 -10.2991,14.7404 16.7238,-8.8895 10.3626,18.9228 1.1216,-21.5452 18.9248,0.7488 -15.694,-8.8048 10.3163,-14.7443 -16.7238,8.8895 -10.3625,-18.9227 z"
       style="fill:#ffffff;fill-opacity:1;stroke:none;display:inline"
       inkscape:connector-curvature="0" />
    <path
       sodipodi:nodetypes="cscscsccscsscsccscscscc"
       inkscape:connector-curvature="0"
       id="path3931"
       d="m 922.55338,942.36895 c 0,0 -75.13009,138.10675 -107.17087,173.46215 -32.04078,35.3553 -50.8233,44.1942 -50.8233,44.1942 0,0 6.62913,12.1534 16.57282,22.097 9.94368,9.9437 28.72621,16.5729 28.72621,16.5729 0,0 30.93592,-68.501 58.55728,-104.9612 27.62136,-36.4602 97.22718,-131.47767 97.22718,-131.47767 l 12.1534,1.10486 c 0,0 -54.13786,72.92041 -76.23495,132.58251 -22.09709,59.6621 -51.92816,128.1631 -51.92816,128.1631 0,0 35.35534,18.7825 96.12233,26.5165 60.76698,7.734 107.17088,13.2583 180.09128,-16.5728 72.9204,-29.8311 71.8155,-37.565 71.8155,-37.565 0,0 -26.5165,-109.3806 -37.565,-149.1554 -11.0486,-39.7747 -29.8311,-103.85629 -29.8311,-103.85629 l 13.2583,-5.52427 c 0,0 25.4116,70.71066 44.1941,129.26796 18.7825,58.5573 37.5651,118.2194 37.5651,118.2194 0,0 27.6213,-23.2019 38.6699,-36.4602 11.0485,-13.2582 22.0971,-35.3553 22.0971,-35.3553 0,0 -28.7263,-68.501 -54.1379,-100.5418 -25.4117,-32.04074 -89.4932,-113.79996 -89.4932,-113.79996 -72.936,21.14627 -145.13286,31.95885 -219.86602,43.08931 z"
       style="fill:none;fill-opacity:1;stroke:#3c164a;stroke-width:8;stroke-linecap:butt;stroke-linejoin:miter;stroke-miterlimit:4;stroke-opacity:1;stroke-dasharray:none;stroke-dashoffset:14.40000000000000000" />
  </g>
  <g
     inkscape:groupmode="layer"
     id="layer4"
     inkscape:label="arm1"
     style="display:inline">
    <path
       style="fill:#e9bcfe;fill-opacity:1;stroke:#a265b3;stroke-width:8;stroke-miterlimit:4;stroke-opacity:1;stroke-dasharray:none"
       d="m 823.4375,699 c 0,0 -50,60.9375 -75,100 -25,39.0625 -64.0625,112.5 -64.0625,112.5 0,0 -32.8125,26.5625 -71.875,76.5625 -39.0625,50 -76.5625,142.1875 -76.5625,151.5625 0,9.375 34.375,-1.5625 46.875,-9.375 12.5,-7.8125 81.25,-71.875 100,-90.625 18.75,-18.75 31.25,-60.9375 35.9375,-71.875 4.6875,-10.9375 3.51563,-20.70312 3.51563,-20.70312 0,0 68.35937,-55.46876 110.54687,-105.85938 C 889.83521,773.07704 881.25,699 881.25,699 z"
       id="path3980"
       inkscape:connector-curvature="0"
       sodipodi:nodetypes="cscssssscscc" />
    <path
       style="fill:#a265b3;fill-opacity:1;stroke:none"
       d="m 728.90625,948.21874 c -9.76562,2.73438 -19.92187,-2.34375 -19.92187,-2.34375 0,0 7.8125,-0.78125 16.01562,-3.90625 8.20313,-3.125 3.90625,6.25 3.90625,6.25 z"
       id="path3982"
       inkscape:connector-curvature="0" />
    <path
       style="fill:#e9bcfe;fill-opacity:1;stroke:#a265b3;stroke-width:8;stroke-miterlimit:4;stroke-opacity:1;stroke-dasharray:none"
       d="m 558.20313,1185.9141 c 0,0 11.71875,16.7968 18.55469,23.0468 6.83593,6.25 16.01562,9.1797 21.48437,8.0078 5.46875,-1.1718 10.15625,-8.5937 9.76563,-11.914 -0.39063,-3.3203 -21.48438,-31.25 -23.4375,-43.3594 -1.95313,-12.1094 -2.34375,-21.6797 -2.34375,-21.6797 z"
       id="path3992"
       inkscape:connector-curvature="0" />
    <g
       id="g3988">
      <path
         inkscape:connector-curvature="0"
         id="path3984"
         d="m 549.60938,1118.5312 c 0,0 -44.53125,33.9844 -48.82813,39.8438 -4.29687,5.8594 16.40625,25.3906 24.60938,32.4219 8.20312,7.0312 30.85937,8.2031 35.15625,3.5156 4.29687,-4.6875 19.92187,-35.9375 23.04687,-46.0938 3.125,-10.1562 9.76563,-26.9531 8.59375,-29.2968 -1.17187,-2.3438 -42.57812,-0.3907 -42.57812,-0.3907 z"
         style="fill:#e9bcfe;fill-opacity:1;stroke:#a265b3;stroke-width:8;stroke-miterlimit:4;stroke-opacity:1;stroke-dasharray:none" />
      <path
         inkscape:connector-curvature="0"
         id="path3986"
         d="m 533.00782,1136.5 c 10.74218,-8.3984 16.79687,-25.5859 18.35937,-28.7109 1.5625,-3.125 46.67969,4.2968 44.33594,7.0312 -2.34375,2.7344 -7.03125,5.6641 -10.35156,15.4297 -3.32032,9.7656 -52.34375,6.25 -52.34375,6.25 z"
         style="fill:#e9bcfe;fill-opacity:1;stroke:none" />
    </g>
    <g
       id="g3998">
      <path
         inkscape:connector-curvature="0"
         id="path3994"
         d="m 565.42969,1181.8125 c 0,0 -11.71875,38.0859 -29.49219,60.5469 -17.77344,22.4609 -24.41406,28.7109 -30.85937,28.125 -6.44532,-0.586 -8.00782,-9.961 -6.05469,-13.4766 1.95312,-3.5156 45.50781,-72.6562 45.50781,-72.6562 z"
         style="fill:#e9bcfe;fill-opacity:1;stroke:#a265b3;stroke-width:8;stroke-linecap:butt;stroke-linejoin:miter;stroke-miterlimit:4;stroke-opacity:1;stroke-dasharray:none;stroke-dashoffset:14.4" />
      <path
         inkscape:connector-curvature="0"
         id="path3996"
         d="m 555.66407,1196.6562 c 3.51562,-8.2031 9.96093,-18.75 11.13281,-20.8984 1.17187,-2.1484 -18.16406,1.1719 -18.75,3.5156 -0.58594,2.3438 1.17187,6.25 -2.73438,11.7188 -3.90625,5.4687 10.35157,5.664 10.35157,5.664 z"
         style="fill:#e9bcfe;fill-opacity:1;stroke:none" />
    </g>
    <g
       id="g4028">
      <path
         sodipodi:nodetypes="cssscc"
         inkscape:connector-curvature="0"
         id="path4002"
         d="m 547.07032,1187.2812 c 0,0 -15.82032,37.6954 -29.49219,55.8594 -13.67188,18.1641 -29.88282,38.2813 -40.03907,34.5703 -10.15625,-3.7109 0.19532,-17.1875 13.67188,-33.3984 13.47656,-16.2109 41.21094,-62.1094 41.21094,-62.1094 3.43785,2.0539 9.2166,3.5227 14.64844,5.0781 z"
         style="fill:#e9bcfe;fill-opacity:1;stroke:#a265b3;stroke-width:8;stroke-miterlimit:4;stroke-opacity:1;stroke-dasharray:none" />
      <path
         sodipodi:nodetypes="cccsc"
         inkscape:connector-curvature="0"
         id="path4004"
         d="m 534.96094,1205.0547 c 20.89844,-26.3672 23.63282,-24.6094 23.63282,-24.6094 l -21.87501,-1.7578 c 0,0 -2.53906,7.6172 -4.88281,11.9141 -2.34375,4.2968 3.125,14.4531 3.125,14.4531 z"
         style="fill:#e9bcfe;fill-opacity:1;stroke:none" />
    </g>
    <g
       id="g4039">
      <path
         inkscape:connector-curvature="0"
         id="path4010"
         d="m 530.46875,1188.0625 c 0,0 -23.24219,43.1641 -32.42187,54.1016 -9.17969,10.9375 -34.57032,35.7421 -49.21875,32.0312 -14.64844,-3.7109 12.30468,-37.8906 17.77343,-44.9219 5.46875,-7.0312 45.70313,-55.664 45.70313,-55.664 z"
         style="fill:#e9bcfe;fill-opacity:1;stroke:#a265b3;stroke-width:8;stroke-miterlimit:4;stroke-opacity:1;stroke-dasharray:none" />
      <path
         sodipodi:nodetypes="cssssc"
         inkscape:connector-curvature="0"
         id="path4012"
         d="m 501.75781,1193.1406 c 6.64063,-8.9844 19.33594,-25.9765 21.09375,-27.1484 1.75782,-1.1719 20.70316,8.9844 20.1172,11.3282 -0.29297,1.1718 3.07617,3.2226 -0.63477,5.6884 -3.71094,2.4658 -17.24455,6.8159 -25.34181,21.0694 -5.28398,9.3013 -15.23437,-10.9376 -15.23437,-10.9376 z"
         style="fill:#e9bcfe;fill-opacity:1;stroke:none" />
    </g>
    <g
       id="g4034">
      <g
         id="g4022">
        <path
           style="fill:#e9bcfe;fill-opacity:1;stroke:#a265b3;stroke-opacity:1;stroke-width:8;stroke-miterlimit:4;stroke-dasharray:none"
           d="m 524.21875,1178.1016 c 0,0 -19.53125,36.5234 -30.27344,50.3906 -10.74218,13.8672 -23.24218,32.4219 -38.67187,26.5625 -15.42969,-5.8594 4.6875,-36.9141 16.21094,-53.5156 11.52343,-16.6016 18.35937,-32.0313 25.97656,-40.625 7.61719,-8.5938 8.20312,-7.8125 8.20312,-7.8125 z"
           id="path4018"
           inkscape:connector-curvature="0" />
        <path
           sodipodi:nodetypes="cscsc"
           style="fill:#e9bcfe;fill-opacity:1;stroke:none"
           d="m 494.92188,1170.875 c 5.27343,-7.8125 7.61718,-10.9375 18.94531,-19.3359 11.32812,-8.3985 19.14062,25.3906 19.14062,25.3906 0,0 -6.57496,-2.1282 -21.875,17.3828 -8.19017,10.4443 -16.21093,-23.4375 -16.21093,-23.4375 z"
           id="path4020"
           inkscape:connector-curvature="0" />
      </g>
    </g>
    <g
       id="g4047">
      <path
         inkscape:connector-curvature="0"
         id="path4043"
         d="m 912.60969,562.29906 c -57.45242,-17.67767 -95.01747,-4.41942 -108.27572,41.98446 -13.25826,46.40389 6.62912,64.08156 6.62912,64.08156 l -33.14563,24.30679 c 0,0 26.51651,26.51651 57.45243,35.35534 30.93592,8.83884 72.92038,17.67767 72.92038,17.67767 l -15.46796,-39.77476 c 0,0 44.19418,-39.77475 41.98447,-70.71067 -2.20971,-30.93593 13.25825,-59.66214 -22.09709,-72.92039 z"
         style="fill:#a9dbf8;fill-opacity:1;stroke:#5ea4df;stroke-opacity:1;stroke-width:8;stroke-miterlimit:4;stroke-dasharray:none" />
      <path
         inkscape:connector-curvature="0"
         id="path4045"
         d="m 806.83594,674.39062 c 1.17188,0.39062 21.875,19.53125 37.69531,26.95312 15.82032,7.42188 49.80469,10.35157 49.80469,10.35157"
         style="fill:none;fill-opacity:1;stroke:#5ea4df;stroke-width:6;stroke-linecap:butt;stroke-linejoin:miter;stroke-miterlimit:4;stroke-opacity:1;stroke-dasharray:none;stroke-dashoffset:14.40000000000000000" />
    </g>
  </g>
  <g
     inkscape:groupmode="layer"
     id="layer5"
     inkscape:label="arm2back">
    <path
       style="fill:#e9bcfe;fill-opacity:1;stroke:#a265b3;stroke-width:6;stroke-linecap:butt;stroke-linejoin:miter;stroke-miterlimit:4;stroke-opacity:1;stroke-dasharray:none;stroke-dashoffset:14.40000000000000000"
       d="m 1324.2188,702.90624 c 20.3125,-2.34375 30.4687,1.5625 34.375,10.9375 3.9062,9.375 0,24.21875 0,24.21875 l -46.875,-10.15625 z"
       id="path4054"
       inkscape:connector-curvature="0" />
    <path
       style="fill:#e9bcfe;stroke:#a265b3;stroke-width:6;stroke-linecap:butt;stroke-linejoin:miter;stroke-miterlimit:4;stroke-opacity:1;stroke-dasharray:none;stroke-dashoffset:14.40000000000000000;fill-opacity:1"
       d="m 1324.7204,713.11168 c 3.867,-0.55243 30.9359,7.18155 37.0126,13.25825 6.0767,6.0767 9.3912,31.48835 9.3912,47.50874 0,16.02038 -1.6572,32.5932 -9.3912,38.11747 -7.734,5.52427 -53.033,5.52427 -53.033,5.52427 z"
       id="path4052"
       inkscape:connector-curvature="0" />
    <path
       style="fill:#e9bcfe;fill-opacity:1;stroke:#a265b3;stroke-width:6;stroke-linecap:butt;stroke-linejoin:miter;stroke-miterlimit:4;stroke-opacity:1;stroke-dasharray:none;stroke-dashoffset:14.40000000000000000"
       d="m 1333.5938,730.24999 c 0,0 14.8437,14.0625 17.1875,31.25 2.3437,17.1875 6.25,85.15625 5.4687,134.37501 -0.7812,49.21875 -1.5625,82.03125 -30.4687,91.40625 -28.9063,9.375 -48.4375,-72.65625 -35.1563,-152.34376 13.2813,-79.6875 42.9688,-104.6875 42.9688,-104.6875 z"
       id="path4056"
       inkscape:connector-curvature="0" />
  </g>
  <g
     inkscape:groupmode="layer"
     id="layer6"
     inkscape:label="book">
    <path
       style="fill:#4c3021;fill-opacity:1;stroke:#342010;stroke-width:6;stroke-linecap:butt;stroke-linejoin:miter;stroke-miterlimit:4;stroke-opacity:1;stroke-dasharray:none;stroke-dashoffset:14.40000000000000000"
       d="m 1237.4369,620.85634 c 0,0 8.8388,-8.83884 23.2019,-9.94369 14.3631,-1.10485 61.8719,3.31456 70.7107,4.41942 8.8388,1.10485 17.6777,8.83883 17.6777,15.46796 0,6.62912 -48.6136,303.83494 -48.6136,312.67378 0,8.83883 -22.0971,15.46796 -37.5651,9.94369 -15.4679,-5.52427 -49.7184,-13.25825 -54.1378,-15.46796 -4.4195,-2.20971 -23.202,-46.40389 -25.4117,-56.34757 -2.2097,-9.94369 54.1379,-260.74563 54.1379,-260.74563 z"
       id="path4066"
       inkscape:connector-curvature="0" />
    <path
       style="fill:none;fill-opacity:1;stroke:#342010;stroke-width:6;stroke-linecap:butt;stroke-linejoin:miter;stroke-miterlimit:4;stroke-opacity:1;stroke-dasharray:none;stroke-dashoffset:14.40000000000000000"
       d="m 1265.625,611.49999 c 0,0 -40.625,223.4375 -44.5312,268.75001 -3.9063,45.3125 -10.9375,59.375 -10.9375,59.375"
       id="path4068"
       inkscape:connector-curvature="0" />
    <path
       style="fill:#cd8e33;fill-opacity:1;stroke:#7c5926;stroke-width:6;stroke-linecap:butt;stroke-linejoin:miter;stroke-miterlimit:4;stroke-opacity:1;stroke-dasharray:none;stroke-dashoffset:14.4"
       d="m 1256.2501,695.09374 c 0,0 28.125,-3.90625 46.0937,-1.5625 17.9688,2.34375 46.0938,7.03125 49.2188,10.15625 3.125,3.125 -1.5625,44.53125 -4.6875,49.21875 -3.125,4.6875 -13.2813,7.03125 -13.2813,7.03125 l 4.6875,-25 c 0,0 -53.9062,-10.15625 -67.9687,-9.375 -14.0625,0.78125 -19.5313,3.90625 -22.6563,2.34375 -3.125,-1.5625 8.5938,-32.8125 8.5938,-32.8125 z"
       id="path4070"
       inkscape:connector-curvature="0" />
    <path
       style="fill:#cd8e33;fill-opacity:1;stroke:#7c5926;stroke-width:6;stroke-linecap:butt;stroke-linejoin:miter;stroke-miterlimit:4;stroke-opacity:1;stroke-dasharray:none;stroke-dashoffset:14.4"
       d="m 1232.0313,792.74999 c 0,0 42.9687,0.78125 63.2812,4.6875 20.3125,3.90625 35.1563,3.90625 39.0625,7.8125 3.9063,3.90625 -1.5625,37.5 -5.4687,41.40625 -3.9063,3.90625 -10.1563,10.9375 -10.1563,10.9375 0,0 3.9063,-17.96875 2.3438,-21.09375 -1.5625,-3.125 -96.875,-13.28125 -96.875,-13.28125 z"
       id="path4072"
       inkscape:connector-curvature="0" />
  </g>
  <g
     inkscape:groupmode="layer"
     id="layer7"
     inkscape:label="arm2front">
    <g
       transform="translate(7.25327e-6,9.9999997e-6)"
       id="g4086">
      <path
         sodipodi:nodetypes="cscsscc"
         inkscape:connector-curvature="0"
         id="path4074"
         d="m 1225,677.12499 c 0,0 36.7188,66.40625 60.1563,134.375 23.4375,67.96876 30.4687,103.12501 30.4687,103.12501 0,0 9.7656,70.3125 6.6406,71.875 -3.125,1.5625 -37.1093,14.0625 -96.4843,-123.43751 -59.375,-137.5 -43.75,-174.21875 -43.75,-174.21875 z"
         style="fill:#e9bcfe;fill-opacity:1;stroke:#a265b3;stroke-width:6;stroke-linecap:butt;stroke-linejoin:miter;stroke-miterlimit:4;stroke-opacity:1;stroke-dasharray:none;stroke-dashoffset:14.4" />
      <path
         inkscape:connector-curvature="0"
         id="path4078"
         d="m 1312.1094,983.57031 c 5.4687,1.36718 11.3281,1.5625 14.8437,0.19531 3.5157,-1.36719 -3.7109,-70.3125 -3.7109,-70.3125 0,0 -8.7891,-14.84375 -6.8359,-8.00781 1.9531,6.83593 -1.1719,14.25781 -1.1719,14.25781 0,0 -4.4922,-12.5 -5.6641,-17.77344 -1.1719,-5.27344 2.5391,81.64063 2.5391,81.64063 z"
         style="fill:#e9bcfe;fill-opacity:1;stroke:none" />
    </g>
    <g
       id="g4119">
      <path
         inkscape:connector-curvature="0"
         id="path4115"
         d="m 1135.9375,747.4375 c 0,0 40.625,6.25 73.4375,-7.8125 32.8125,-14.0625 34.375,-18.75 46.875,-28.125 12.5,-9.375 18.75,-26.5625 18.75,-26.5625 l -20.3125,-15.625 c 0,0 15.625,-39.06251 10.9375,-64.06251 -4.6875,-25 -37.5,-37.5 -67.1875,-35.9375 -29.6875,1.5625 -96.875,37.5 -87.5,76.56251 9.375,39.0625 50,71.875 50,71.875 z"
         style="fill:#a9dbf8;fill-opacity:1;stroke:#5ea4df;stroke-opacity:1;stroke-width:8;stroke-miterlimit:4;stroke-dasharray:none" />
      <path
         inkscape:connector-curvature="0"
         id="path4117"
         d="m 1160.1563,717.74999 c 3.9062,-1.5625 25,-0.78125 50.7812,-14.0625 25.7813,-13.28125 45.3125,-35.15625 45.3125,-35.15625"
         style="fill:#a9dbf8;fill-opacity:1;stroke:#5ea4df;stroke-width:6;stroke-linecap:butt;stroke-linejoin:miter;stroke-miterlimit:4;stroke-opacity:1;stroke-dasharray:none;stroke-dashoffset:14.40000000000000000" />
    </g>
  </g>
  <g
     inkscape:groupmode="layer"
     id="layer8"
     inkscape:label="shirt">
    <path
       style="fill:#a9dbf8;fill-opacity:1;stroke:#5ea4df;stroke-width:8;stroke-linecap:butt;stroke-linejoin:miter;stroke-miterlimit:4;stroke-opacity:1;stroke-dasharray:none;stroke-dashoffset:14.40000000000000000"
       d="m 1050.7813,549.78124 c -55.4688,2.34375 -126.56255,4.6875 -136.7188,32.03125 -10.15625,27.34375 0,207.8125 5.46875,244.53125 C 925,863.06249 865.625,921.65625 865.625,921.65625 c 0,0 7.03125,42.96875 64.84375,53.90625 57.8125,10.9375 89.84375,11.71875 136.71875,6.25 46.875,-5.46875 88.2813,-24.21875 114.0625,-48.4375 25.7813,-24.21875 30.4688,-49.21875 30.4688,-49.21875 0,0 -14.0625,-1.5625 -32.8125,-14.84376 -18.75,-13.28125 -24.2188,-35.9375 -26.5625,-112.5 -2.3438,-76.5625 4.6875,-172.65625 -7.8125,-187.5 -12.5,-14.84375 -63.2813,-21.875 -93.75,-19.53125 z"
       id="path4124"
       inkscape:connector-curvature="0" />
  </g>
  <g
     inkscape:groupmode="layer"
     id="layer10"
     inkscape:label="wings">
    <g
       id="g4153"
       transform="translate(-301.5625,-62.5)">
      <path
         inkscape:connector-curvature="0"
         id="path4134"
         d="m 1425,705.25 c 0,0 123.4375,-31.25 179.6875,-137.50001 56.25,-106.25 93.75,-189.0625 160.9375,-212.5 67.1875,-23.4375 173.4375,29.6875 278.125,120.3125 104.6875,90.625 115.625,95.3125 132.8125,117.1875 17.1875,21.875 15.625,43.75 6.25,50 -9.375,6.25001 -65.625,4.68751 -100,-7.8125 -34.375,-12.5 -82.8125,-42.1875 -82.8125,-42.1875 0,0 101.5625,67.18751 87.5,96.87501 -14.0625,29.6875 -51.5625,-1.5625 -70.3125,-7.8125 -18.75,-6.25 -59.375,-40.62501 -59.375,-40.62501 0,0 64.0625,34.37501 29.6875,64.06251 -34.375,29.6875 -106.25,-42.1875 -106.25,-42.1875 0,0 70.3125,59.375 39.0625,90.625 -31.25,31.25 -112.5,-40.625 -112.5,-40.625 0,0 64.0625,51.5625 34.375,73.4375 -29.6875,21.875 -125,-54.6875 -125,-54.6875 0,0 40.625,42.1875 3.125,56.25 -37.5,14.0625 -125,-71.875 -125,-71.875 0,0 32.8125,54.6875 14.0625,60.9375 -18.75,6.25 -85.9375,-34.375 -85.9375,-34.375 0,0 20.3125,53.125 3.125,64.0625 -17.1875,10.9375 -28.125,9.375 -46.875,-3.125 C 1460.9375,791.1875 1453.125,774 1453.125,774 l -35.9375,3.125 L 1400,706.8125 z"
         style="fill:#e9bcfe;fill-opacity:1;stroke:#a265b3;stroke-width:8;stroke-linecap:butt;stroke-linejoin:miter;stroke-miterlimit:4;stroke-opacity:1;stroke-dasharray:none;stroke-dashoffset:14.4" />
      <g
         id="g4147">
        <path
           style="fill:#e9bcfe;fill-opacity:1;stroke:#a265b3;stroke-width:8;stroke-linecap:butt;stroke-linejoin:miter;stroke-miterlimit:4;stroke-opacity:1;stroke-dasharray:none;stroke-dashoffset:14.4"
           d="m 1582.8125,688.84374 c 3.125,-3.125 56.25,-31.25 87.5,-86.71875 31.25,-55.46875 39.0625,-134.375 99.2188,-162.5 60.1562,-28.125 91.4062,-34.375 116.4062,-17.1875 25,17.1875 51.5625,46.09375 65.625,64.84375 14.0625,18.75 20.3125,38.28125 15.625,43.75 -4.6875,5.46875 -50.7812,-7.03125 -64.8437,-14.0625 -14.0625,-7.03125 -31.25,-18.75 -31.25,-18.75 0,0 56.25,40.625 30.4687,60.15625 -25.7812,19.53125 -63.2812,4.6875 -73.4375,-0.78125 -10.1562,-5.46875 -22.6562,-14.0625 -22.6562,-14.0625 0,0 44.5312,52.34375 26.5625,73.4375 -17.9688,21.09375 -47.6563,15.625 -61.7188,13.28125 -14.0625,-2.34375 -29.6875,-14.84375 -29.6875,-14.84375 0,0 9.375,29.6875 -1.5625,37.5 -10.9375,7.8125 -53.125,-10.9375 -53.125,-10.9375"
           id="path4136"
           inkscape:connector-curvature="0" />
        <g
           id="g4143">
          <path
             inkscape:connector-curvature="0"
             id="path4138"
             d="m 1631.25,657.00781 c -16.9922,15.03906 -54.1016,30.07812 -54.1016,30.07812 l 7.8125,7.03125 34.5704,-25 z"
             style="fill:#e9bcfe;fill-opacity:1;stroke:none" />
          <path
             inkscape:connector-curvature="0"
             id="path4141"
             d="m 1708.3984,654.66406 c -11.7187,-3.51563 -22.6562,-18.75001 -22.6562,-18.75001 l -3.3203,11.71876 z"
             style="fill:#e9bcfe;fill-opacity:1;stroke:none" />
        </g>
      </g>
    </g>
    <g
       transform="matrix(-1,0,0,1,2345.977,-53.125)"
       id="g4161">
      <path
         style="fill:#e9bcfe;fill-opacity:1;stroke:#a265b3;stroke-width:8;stroke-linecap:butt;stroke-linejoin:miter;stroke-miterlimit:4;stroke-opacity:1;stroke-dasharray:none;stroke-dashoffset:14.4"
         d="m 1425,705.25 c 0,0 123.4375,-31.25 179.6875,-137.50001 56.25,-106.25 93.75,-189.0625 160.9375,-212.5 67.1875,-23.4375 173.4375,29.6875 278.125,120.3125 104.6875,90.625 115.625,95.3125 132.8125,117.1875 17.1875,21.875 15.625,43.75 6.25,50 -9.375,6.25001 -65.625,4.68751 -100,-7.8125 -34.375,-12.5 -82.8125,-42.1875 -82.8125,-42.1875 0,0 101.5625,67.18751 87.5,96.87501 -14.0625,29.6875 -51.5625,-1.5625 -70.3125,-7.8125 -18.75,-6.25 -59.375,-40.62501 -59.375,-40.62501 0,0 64.0625,34.37501 29.6875,64.06251 -34.375,29.6875 -106.25,-42.1875 -106.25,-42.1875 0,0 70.3125,59.375 39.0625,90.625 -31.25,31.25 -112.5,-40.625 -112.5,-40.625 0,0 64.0625,51.5625 34.375,73.4375 -29.6875,21.875 -125,-54.6875 -125,-54.6875 0,0 40.625,42.1875 3.125,56.25 -37.5,14.0625 -125,-71.875 -125,-71.875 0,0 32.8125,54.6875 14.0625,60.9375 -18.75,6.25 -85.9375,-34.375 -85.9375,-34.375 0,0 20.3125,53.125 3.125,64.0625 -17.1875,10.9375 -28.125,9.375 -46.875,-3.125 C 1460.9375,791.1875 1453.125,774 1453.125,774 l -35.9375,3.125 L 1400,706.8125 z"
         id="path4163"
         inkscape:connector-curvature="0" />
      <g
         id="g4165">
        <path
           inkscape:connector-curvature="0"
           id="path4167"
           d="m 1582.8125,688.84374 c 3.125,-3.125 56.25,-31.25 87.5,-86.71875 31.25,-55.46875 39.0625,-134.375 99.2188,-162.5 60.1562,-28.125 91.4062,-34.375 116.4062,-17.1875 25,17.1875 51.5625,46.09375 65.625,64.84375 14.0625,18.75 20.3125,38.28125 15.625,43.75 -4.6875,5.46875 -50.7812,-7.03125 -64.8437,-14.0625 -14.0625,-7.03125 -31.25,-18.75 -31.25,-18.75 0,0 56.25,40.625 30.4687,60.15625 -25.7812,19.53125 -63.2812,4.6875 -73.4375,-0.78125 -10.1562,-5.46875 -22.6562,-14.0625 -22.6562,-14.0625 0,0 44.5312,52.34375 26.5625,73.4375 -17.9688,21.09375 -47.6563,15.625 -61.7188,13.28125 -14.0625,-2.34375 -29.6875,-14.84375 -29.6875,-14.84375 0,0 9.375,29.6875 -1.5625,37.5 -10.9375,7.8125 -53.125,-10.9375 -53.125,-10.9375"
           style="fill:#e9bcfe;fill-opacity:1;stroke:#a265b3;stroke-width:8;stroke-linecap:butt;stroke-linejoin:miter;stroke-miterlimit:4;stroke-opacity:1;stroke-dasharray:none;stroke-dashoffset:14.4" />
        <g
           id="g4169">
          <path
             style="fill:#e9bcfe;fill-opacity:1;stroke:none"
             d="m 1631.25,657.00781 c -16.9922,15.03906 -54.1016,30.07812 -54.1016,30.07812 l 7.8125,7.03125 34.5704,-25 z"
             id="path4171"
             inkscape:connector-curvature="0" />
          <path
             style="fill:#e9bcfe;fill-opacity:1;stroke:none"
             d="m 1708.3984,654.66406 c -11.7187,-3.51563 -22.6562,-18.75001 -22.6562,-18.75001 l -3.3203,11.71876 z"
             id="path4173"
             inkscape:connector-curvature="0" />
        </g>
      </g>
    </g>
  </g>
  <g
     inkscape:groupmode="layer"
     id="layer9"
     inkscape:label="backpack">
    <path
       style="fill:#4269b5;fill-opacity:1;stroke:#284879;stroke-width:8;stroke-linecap:butt;stroke-linejoin:miter;stroke-miterlimit:4;stroke-opacity:1;stroke-dasharray:none;stroke-dashoffset:14.40000000000000000"
       d="m 935.15625,571.65624 c -3.90625,-0.78125 -17.1875,-10.9375 -26.5625,-9.375 -9.375,1.5625 -25.78125,9.375 -23.4375,75.78125 2.34375,66.40625 8.59375,125 13.28125,141.40625 4.6875,16.40625 10.15625,24.21875 19.53125,29.6875 9.375,5.46875 1.5625,-17.1875 0,-43.75 -1.5625,-26.5625 -2.34375,-130.46875 0.78125,-150.78125 3.125,-20.3125 16.40625,-42.96875 16.40625,-42.96875 z"
       id="path4127"
       inkscape:connector-curvature="0" />
    <path
       style="fill:#4269b5;fill-opacity:1;stroke:#284879;stroke-width:8;stroke-linecap:butt;stroke-linejoin:miter;stroke-miterlimit:4;stroke-opacity:1;stroke-dasharray:none;stroke-dashoffset:14.40000000000000000"
       d="m 1117.9688,565.40624 c 0,0 14.8437,-4.6875 21.0937,-3.125 6.25,1.5625 25,42.1875 29.6875,119.53125 4.6875,77.34375 0,141.40625 -1.5625,152.34375 -1.5625,10.9375 -2.3437,13.28125 -6.25,14.84375 -3.9062,1.5625 -17.1875,9.375 -23.4375,5.46875 -6.25,-3.90625 -5.4687,-164.84375 -7.8125,-204.6875 -2.3437,-39.84375 -11.7187,-84.375 -11.7187,-84.375 z"
       id="path4129"
       inkscape:connector-curvature="0" />
    <path
       style="fill:#4269b5;fill-opacity:1;stroke:#284879;stroke-width:8;stroke-linecap:butt;stroke-linejoin:miter;stroke-miterlimit:4;stroke-opacity:1;stroke-dasharray:none;stroke-dashoffset:14.4"
       d="m 1038.5631,550.69809 c -56.34758,2.20971 -104.96117,-3.86699 -113.24758,19.88738 -8.28641,23.75436 -14.36311,61.31941 -10.49612,124.29611 3.86699,62.9767 2.76214,97.77961 6.62913,125.9534 3.86699,28.17378 6.62912,65.73883 13.81068,71.2631 7.18155,5.52427 66.29129,6.0767 107.72329,6.62913 41.432,0.55242 92.2553,-11.60097 97.2272,-17.67767 4.9718,-6.0767 -1.1049,-122.63884 2.2097,-162.41359 3.3146,-39.77476 -29.8311,-173.46213 -29.8311,-173.46213 -3.867,0.55242 -74.0252,5.52427 -74.0252,5.52427 z"
       id="path4131"
       inkscape:connector-curvature="0" />
  </g>
  <g
     inkscape:groupmode="layer"
     id="layer11"
     inkscape:label="hair back">
    <path
       style="fill:#293573;fill-opacity:1;stroke:#121e4f;stroke-opacity:1;stroke-width:8;stroke-miterlimit:4;stroke-dasharray:none"
       d="m 1018.75,123.99999 c -71.875,6.25 -156.25,14.0625 -185.9375,51.5625 -29.6875,37.5 -21.875,107.8125 -21.875,107.8125 0,0 68.75,31.25 110.9375,34.375 42.1875,3.125 237.5,-17.1875 257.8125,-21.875 20.3125,-4.6875 54.6875,-46.875 54.6875,-46.875 0,0 -10.9375,4.6875 -26.5625,-3.125 -15.625,-7.8125 -37.5,-62.5 -48.4375,-82.8125 -10.9375,-20.3125 -37.5,-25 -64.0625,-31.25 -26.5625,-6.25 -39.0625,-6.25 -76.5625,-7.8125 z"
       id="path4176"
       inkscape:connector-curvature="0" />
    <path
       style="fill:#293573;fill-opacity:1;stroke:#121e4f;stroke-width:8;stroke-linecap:butt;stroke-linejoin:miter;stroke-miterlimit:4;stroke-opacity:1;stroke-dasharray:none;stroke-dashoffset:14.4"
       d="m 878.125,263.06249 c 0,0 -34.375,29.6875 -35.9375,132.8125 -1.5625,103.125 26.5625,137.5 26.5625,137.5 0,0 7.8125,-84.375 26.5625,-123.4375 18.75,-39.0625 7.8125,-131.25 7.8125,-131.25 z"
       id="path4178"
       inkscape:connector-curvature="0" />
    <path
       style="fill:#293573;fill-opacity:1;stroke:#121e4f;stroke-width:8;stroke-linecap:butt;stroke-linejoin:miter;stroke-miterlimit:4;stroke-opacity:1;stroke-dasharray:none;stroke-dashoffset:14.4"
       d="m 1142.1875,233.37499 c 0,0 59.375,71.875 67.1875,139.0625 7.8125,67.1875 -1.5625,121.875 -1.5625,121.875 0,0 -9.375,-40.625 -42.1875,-93.75 -32.8125,-53.125 -54.6875,-151.5625 -54.6875,-151.5625 z"
       id="path4180"
       inkscape:connector-curvature="0" />
  </g>
  <g
     inkscape:groupmode="layer"
     id="layer12"
     inkscape:label="ears">
    <path
       style="fill:#e6bbfc;fill-opacity:1;stroke:#a065b2;stroke-width:8;stroke-linecap:butt;stroke-linejoin:miter;stroke-miterlimit:4;stroke-opacity:1;stroke-dasharray:none;stroke-dashoffset:14.40000000000000000"
       d="m 921.875,236.49999 c 1.5625,-6.25 7.8125,-60.9375 3.125,-79.6875 -4.6875,-18.75 -29.6875,-76.562497 -35.9375,-74.999997 C 882.8125,83.374993 850,163.06249 850,194.31249 c 0,31.25 42.1875,142.1875 42.1875,142.1875 0,0 32.8125,-60.9375 34.375,-70.3125 1.5625,-9.375 -4.6875,-29.6875 -4.6875,-29.6875 z"
       id="path4183"
       inkscape:connector-curvature="0" />
    <path
       style="fill:#e6bbfc;fill-opacity:1;stroke:#a065b2;stroke-width:8;stroke-linecap:butt;stroke-linejoin:miter;stroke-miterlimit:4;stroke-opacity:1;stroke-dasharray:none;stroke-dashoffset:14.4"
       d="m 1113.2813,254.46874 c 0,0 -14.8438,-32.03125 -14.0625,-76.5625 0.7812,-44.53125 25,-107.031248 25,-107.031248 0,0 54.6875,84.374998 58.5937,105.468748 3.9063,21.09375 -7.8125,69.53125 -19.5312,92.96875 -11.7188,23.4375 -35.9375,35.9375 -35.9375,35.9375 z"
       id="path4185"
       inkscape:connector-curvature="0" />
    <path
       inkscape:connector-curvature="0"
       id="path4286"
       d="m 1113.2813,254.46874 c 0,0 -14.8438,-32.03125 -14.0625,-76.5625 0.7812,-44.53125 25,-107.031248 25,-107.031248 0,0 54.6875,84.374998 58.5937,105.468748 3.9063,21.09375 -7.8125,69.53125 -19.5312,92.96875 -11.7188,23.4375 -35.9375,35.9375 -35.9375,35.9375 z"
       style="fill:#e6bbfc;fill-opacity:1;stroke:#a065b2;stroke-width:8;stroke-linecap:butt;stroke-linejoin:miter;stroke-miterlimit:4;stroke-opacity:1;stroke-dasharray:none;stroke-dashoffset:14.4" />
  </g>
  <g
     inkscape:groupmode="layer"
     id="layer13"
     inkscape:label="hair front">
    <g
       id="g4192">
      <path
         inkscape:connector-curvature="0"
         id="path4188"
         d="m 921.875,225.56249 c 0,0 -59.375,43.75 -53.125,132.8125 6.25,89.0625 40.625,117.1875 53.125,153.125 12.5,35.9375 39.0625,104.6875 31.25,142.18751 -7.8125,37.5 -40.625,62.5 -75,65.625 -34.375,3.125 -135.9375,-37.5 -135.9375,-37.5 0,0 -3.125,46.875 -1.5625,70.3125 1.5625,23.4375 4.6875,37.5 4.6875,37.5 0,0 62.5,3.125 106.25,-1.5625 43.75,-4.6875 134.375,-34.375 134.375,-34.375 0,0 -62.5,57.8125 -126.5625,81.25 -64.0625,23.4375 -112.5,23.4375 -112.5,23.4375 0,0 20.3125,78.125 45.3125,126.5625 25,48.4375 50,81.25 50,81.25 0,0 128.125,-70.3125 179.6875,-120.3125 51.5625,-50 96.875,-73.4375 146.875,-239.0625 50,-165.62501 3.125,-331.25001 -7.8125,-370.31251 -10.9375,-39.0625 -26.5625,-81.25 -45.3125,-101.5625 -18.75,-20.3125 -32.8125,-29.6875 -32.8125,-29.6875 l -87.5,42.1875 z"
         style="fill:#293573;fill-opacity:1;stroke:#121e4f;stroke-width:8;stroke-linecap:butt;stroke-linejoin:miter;stroke-miterlimit:4;stroke-opacity:1;stroke-dasharray:none;stroke-dashoffset:14.40000000000000000" />
      <path
         inkscape:connector-curvature="0"
         id="path4190"
         d="m 907.8125,243.92187 c 13.28125,-13.67188 18.75,-18.75 27.34375,-24.21875 8.59375,-5.46875 146.87505,-21.875 149.21875,-19.53125 2.3438,2.34375 6.25,16.40625 14.4531,23.4375 8.2032,7.03125 -106.6406,34.76562 -106.6406,34.76562 z"
         style="fill:#293573;fill-opacity:1;stroke:none;stroke-width:8;stroke-linecap:butt;stroke-linejoin:miter;stroke-miterlimit:4;stroke-opacity:1;stroke-dasharray:none;stroke-dashoffset:14.40000000000000000" />
    </g>
    <g
       inkscape:groupmode="maskhelper"
       id="g4316"
       clip-path="url(#clipPath4321)">
      <g
         id="g4202">
        <path
           style="fill:#e02a8a;fill-opacity:1;stroke:none"
           d="m 1058.4505,98.260233 c 0,0 -81.75926,37.565047 -83.96896,141.421357 -2.20971,103.85631 33.14566,112.69514 35.35536,223.18058 2.2097,110.48543 8.8388,207.71262 -46.40391,247.48737 -55.24272,39.77476 -101.6466,48.61359 -137.00194,50.8233 -35.35534,2.20971 -134.79223,-53.03301 -134.79223,-53.03301 l 59.66213,258.53593 c 0,0 117.11457,-26.51652 181.19612,-64.08157 64.08155,-37.56504 145.84073,-139.21164 167.93783,-225.39027 22.0971,-86.17864 -2.2096,-156.88932 -2.2096,-198.87379 0,-41.98446 -24.3069,-99.43689 -26.5166,-178.9864 -2.2097,-79.54952 8.8388,-101.64661 37.5651,-139.21166 28.7262,-37.56504 55.2427,-83.968924 55.2427,-83.968924 z"
           id="path4198"
           inkscape:connector-curvature="0"
           sodipodi:nodetypes="cssssccssssscc" />
        <path
           style="fill:#612084;fill-opacity:1;stroke:none"
           d="m 702.68737,935.73983 c 0,0 112.69514,-6.62913 167.93786,-30.93592 55.24271,-24.3068 178.98637,-123.74369 203.29317,-232.01942 24.3068,-108.27572 8.8389,-112.69514 8.8389,-152.4699 0,-39.77475 -46.4039,-163.51844 -44.1942,-229.8097 2.2097,-66.29126 55.2427,-154.67961 68.501,-170.14757 13.2582,-15.46796 70.7106,15.46796 70.7106,15.46796 0,0 -75.1301,75.1301 -75.1301,123.74369 0,48.61359 46.4039,181.19611 46.4039,254.1165 0,72.92039 -6.6291,161.30873 -35.3553,232.01941 -28.7262,70.71068 -114.90487,154.67961 -167.93788,192.24466 -53.03301,37.56505 -106.06601,59.66213 -139.21165,70.71066 -33.14563,11.0486 -90.59805,28.7262 -90.59805,28.7262 z"
           id="path4200"
           inkscape:connector-curvature="0" />
      </g>
    </g>
    <path
       style="fill:none;stroke:#121e4f;stroke-width:6;stroke-miterlimit:4;stroke-opacity:1;stroke-dasharray:none"
       d="m 967.1875,129.46874 c 0,0 -36.71875,50 -39.84375,101.5625 -3.125,51.5625 4.6875,171.09375 10.15625,218.75 5.46875,47.65625 0,111.71875 0,111.71875"
       id="path4325"
       inkscape:connector-curvature="0"
       sodipodi:nodetypes="cssc" />
  </g>
</svg>
