<?xml version="1.0" encoding="UTF-8" standalone="no"?>
<!-- Created with Inkscape (http://www.inkscape.org/) -->

<svg
   xmlns:dc="http://purl.org/dc/elements/1.1/"
   xmlns:cc="http://creativecommons.org/ns#"
   xmlns:rdf="http://www.w3.org/1999/02/22-rdf-syntax-ns#"
   xmlns:svg="http://www.w3.org/2000/svg"
   xmlns="http://www.w3.org/2000/svg"
   xmlns:xlink="http://www.w3.org/1999/xlink"
   xmlns:sodipodi="http://sodipodi.sourceforge.net/DTD/sodipodi-0.dtd"
   xmlns:inkscape="http://www.inkscape.org/namespaces/inkscape"
   width="640"
   height="480"
   id="svg2"
   version="1.1"
   inkscape:version="0.48.4 r9939"
   sodipodi:docname="danmakuHUD.svg"
   inkscape:export-filename="C:\Users\Stephen\Desktop\neonair\games\Touhou_EQG\img\menu\danmakuHUD.png"
   inkscape:export-xdpi="90"
   inkscape:export-ydpi="90">
  <defs
     id="defs4">
    <linearGradient
       id="linearGradient6286">
      <stop
         style="stop-color:#c5bccc;stop-opacity:1;"
         offset="0"
         id="stop6288" />
      <stop
         style="stop-color:#ffffff;stop-opacity:1;"
         offset="1"
         id="stop6290" />
    </linearGradient>
    <pattern
       inkscape:collect="always"
       xlink:href="#pattern5351"
       id="pattern6252"
       patternTransform="translate(707.57849,667.05316)" />
    <linearGradient
       id="linearGradient6232">
      <stop
         style="stop-color:#5c1828;stop-opacity:1;"
         offset="0"
         id="stop6234" />
      <stop
         style="stop-color:#d64b9f;stop-opacity:1;"
         offset="1"
         id="stop6236" />
    </linearGradient>
    <pattern
       inkscape:collect="always"
       xlink:href="#pattern5351"
       id="pattern5368"
       patternTransform="translate(311.57849,438.05316)" />
    <pattern
       patternUnits="userSpaceOnUse"
       width="64.000001"
       height="64"
       patternTransform="translate(707.5785,667.05318)"
       id="pattern5266">
      <g
         transform="translate(-728.57141,-643.79077)"
         id="g5260">
        <rect
           style="fill:#3d287b;fill-opacity:1;stroke:none"
           id="rect5250"
           width="64"
           height="64"
           x="728.57141"
           y="643.79077" />
        <path
           style="fill:#773cae;fill-opacity:1;stroke:none"
           d="m 760.57141,71.428591 -32,31.999999 32,32 32,-32 z"
           id="path5252"
           inkscape:connector-curvature="0"
           transform="translate(0,572.36218)" />
        <path
           style="fill:#773cae;fill-opacity:1;stroke:#d440c4;stroke-width:2;stroke-miterlimit:4;stroke-opacity:1;stroke-dasharray:6, 6;stroke-dashoffset:14.4"
           d="m 790.80671,645.55547 -60.2353,60.2353"
           id="path5254"
           inkscape:connector-curvature="0" />
        <path
           inkscape:connector-curvature="0"
           id="path5258"
           d="m 790.80671,705.79077 -60.2353,-60.2353"
           style="fill:#773cae;fill-opacity:1;stroke:#d440c4;stroke-width:2;stroke-miterlimit:4;stroke-opacity:1;stroke-dasharray:6, 6;stroke-dashoffset:14.4" />
      </g>
    </pattern>
    <pattern
       patternUnits="userSpaceOnUse"
       width="64.000009"
       height="64.000018"
       patternTransform="translate(707.57849,667.05316)"
       id="pattern5308">
      <rect
         id="rect5273"
         y="1.1368684e-013"
         x="0"
         height="64"
         width="64"
         style="fill:none;stroke:none" />
      <rect
         y="1.1368684e-013"
         x="0"
         height="64"
         width="64"
         id="rect5296"
         style="fill:#3d287b;fill-opacity:1;stroke:none" />
      <path
         inkscape:connector-curvature="0"
         id="path5298"
         d="M 32.000009,1.8378906e-5 8.7890625e-6,32.000018 l 32.0000002109375,32 32,-32 z"
         style="fill:#6f29b5;fill-opacity:1;stroke:none" />
      <path
         inkscape:connector-curvature="0"
         id="path5300"
         d="M 62.235309,1.7647184 2.0000088,62.000018"
         style="fill:#773cae;fill-opacity:1;stroke:#c81fb7;stroke-width:2;stroke-miterlimit:4;stroke-opacity:1;stroke-dasharray:6, 6;stroke-dashoffset:14.4" />
      <path
         style="fill:#773cae;fill-opacity:1;stroke:#c81fb7;stroke-width:2;stroke-miterlimit:4;stroke-opacity:1;stroke-dasharray:6, 6;stroke-dashoffset:14.4"
         d="M 62.235309,62.000018 2.0000088,1.7647184"
         id="path5302"
         inkscape:connector-curvature="0" />
    </pattern>
    <pattern
       patternUnits="userSpaceOnUse"
       width="64.000009"
       height="64.000018"
       patternTransform="translate(707.57849,667.05316)"
       id="pattern5327">
      <rect
         id="rect5315"
         y="1.1368684e-013"
         x="0"
         height="64.000015"
         width="64.000008"
         style="fill:none;stroke:none" />
      <rect
         id="rect5317"
         y="1.1368684e-013"
         x="0"
         height="64"
         width="64"
         style="fill:none;stroke:none" />
      <rect
         y="1.1368684e-013"
         x="0"
         height="64"
         width="64"
         id="rect5319"
         style="fill:#310b91;fill-opacity:1;stroke:none" />
      <path
         inkscape:connector-curvature="0"
         id="path5321"
         d="M 32.000009,1.8378906e-5 8.7890625e-6,32.000018 l 32.0000002109375,32 32,-32 z"
         style="fill:#6f29b5;fill-opacity:1;stroke:none" />
      <path
         inkscape:connector-curvature="0"
         id="path5323"
         d="M 62.235309,1.7647184 2.0000088,62.000018"
         style="fill:#773cae;fill-opacity:1;stroke:#c81fb7;stroke-width:2;stroke-miterlimit:4;stroke-opacity:1;stroke-dasharray:6, 6;stroke-dashoffset:14.4" />
      <path
         style="fill:#773cae;fill-opacity:1;stroke:#c81fb7;stroke-width:2;stroke-miterlimit:4;stroke-opacity:1;stroke-dasharray:6, 6;stroke-dashoffset:14.4"
         d="M 62.235309,62.000018 2.0000088,1.7647184"
         id="path5325"
         inkscape:connector-curvature="0" />
    </pattern>
    <pattern
       patternUnits="userSpaceOnUse"
       width="64.000009"
       height="64.000018"
       patternTransform="translate(707.57849,667.05316)"
       id="pattern5351">
      <rect
         id="rect5335"
         y="1.1368684e-013"
         x="0"
         height="64.000015"
         width="64.000008"
         style="fill:none;stroke:none" />
      <rect
         id="rect5339"
         y="1.1368684e-013"
         x="0"
         height="64.000015"
         width="64.000008"
         style="fill:none;stroke:none" />
      <rect
         id="rect5341"
         y="1.1368684e-013"
         x="0"
         height="64"
         width="64"
         style="fill:none;stroke:none" />
      <rect
         y="1.1368684e-013"
         x="0"
         height="64"
         width="64"
         id="rect5343"
         style="fill:#3f11b5;fill-opacity:1;stroke:none" />
      <path
         inkscape:connector-curvature="0"
         id="path5345"
         d="M 32.000009,1.8378906e-5 8.7890625e-6,32.000018 l 32.0000002109375,32 32,-32 z"
         style="fill:#6f29b5;fill-opacity:1;stroke:none" />
      <path
         inkscape:connector-curvature="0"
         id="path5347"
         d="M 62.235309,1.7647184 2.0000088,62.000018"
         style="fill:#773cae;fill-opacity:1;stroke:#c81fb7;stroke-width:2;stroke-miterlimit:4;stroke-opacity:1;stroke-dasharray:6, 6;stroke-dashoffset:14.4" />
      <path
         style="fill:#773cae;fill-opacity:1;stroke:#c81fb7;stroke-width:2;stroke-miterlimit:4;stroke-opacity:1;stroke-dasharray:6, 6;stroke-dashoffset:14.4"
         d="M 62.235309,62.000018 2.0000088,1.7647184"
         id="path5349"
         inkscape:connector-curvature="0" />
    </pattern>
    <clipPath
       clipPathUnits="userSpaceOnUse"
       id="clipPath5396">
      <path
         style="fill:#ff00fa;fill-opacity:1;stroke:none"
         d="m 0,572.36218 0,480.00002 640,0 0,-480.00002 -640,0 z m 32,16 400,0 0,448.00002 -400,0 0,-448.00002 z"
         id="path5398"
         inkscape:connector-curvature="0" />
    </clipPath>
    <clipPath
       clipPathUnits="userSpaceOnUse"
       id="clipPath5557">
      <rect
         style="fill:#f54444;fill-opacity:1;stroke:none"
         id="rect5559"
         width="114"
         height="66.5"
         x="806"
         y="858.86218"
         rx="4.9836063"
         ry="4" />
    </clipPath>
  </defs>
  <sodipodi:namedview
     id="base"
     pagecolor="#ffffff"
     bordercolor="#666666"
     borderopacity="1.0"
     inkscape:pageopacity="0.0"
     inkscape:pageshadow="2"
     inkscape:zoom="0.90509668"
     inkscape:cx="489.30399"
     inkscape:cy="191.94705"
     inkscape:document-units="px"
     inkscape:current-layer="layer1"
     showgrid="false"
     inkscape:snap-midpoints="true"
     inkscape:object-nodes="false"
     inkscape:window-width="1600"
     inkscape:window-height="878"
     inkscape:window-x="-8"
     inkscape:window-y="-8"
     inkscape:window-maximized="1"
     showguides="true"
     inkscape:guide-bbox="true"
     inkscape:object-paths="false"
     inkscape:snap-nodes="false"
     inkscape:snap-intersection-paths="false"
     inkscape:snap-object-midpoints="false"
     inkscape:snap-smooth-nodes="true" />
  <metadata
     id="metadata7">
    <rdf:RDF>
      <cc:Work
         rdf:about="">
        <dc:format>image/svg+xml</dc:format>
        <dc:type
           rdf:resource="http://purl.org/dc/dcmitype/StillImage" />
        <dc:title></dc:title>
      </cc:Work>
    </rdf:RDF>
  </metadata>
  <g
     inkscape:label="Layer 1"
     inkscape:groupmode="layer"
     id="layer1"
     transform="translate(0,-572.36218)">
    <g
       id="g5385"
       clip-path="url(#clipPath5396)"
       style="stroke:none"
       transform="translate(0,-2.6171874e-6)">
      <rect
         style="fill:#3f11b5;fill-opacity:1;stroke:none"
         id="rect5366"
         width="666"
         height="480"
         x="0"
         y="572.36218" />
      <g
         id="g6254">
        <rect
           style="fill:url(#pattern6252);fill-opacity:1;stroke:none"
           id="rect2985"
           width="640"
           height="480"
           x="0"
           y="572.36218" />
        <rect
           y="585.36218"
           x="29.321428"
           height="454"
           width="405.35715"
           id="rect5372"
           style="fill:#2d2140;fill-opacity:0.56140352;stroke:none" />
      </g>
    </g>
    <rect
       style="fill:url(#pattern5368);stroke:none"
       width="64.000008"
       height="64.000015"
       x="311.57849"
       y="438.05316"
       id="rect5360" />
    <path
       style="fill:#3a1236;fill-opacity:1;stroke:none"
       d="m 807.33649,565.2464 c -3.0052,0 -5.875,1.76586 -5.875,6.40625 0,6.143 10.375,11.71875 10.375,11.71875 0,0 10.375,-5.57575 10.375,-11.71875 0,-4.64039 -2.8698,-6.40625 -5.875,-6.40625 -3.27037,0 -4.5,2.8125 -4.5,2.8125 0,0 -1.22963,-2.8125 -4.5,-2.8125 z"
       id="path5406"
       inkscape:connector-curvature="0" />
    <g
       id="g5878"
       transform="matrix(0.6177927,0,0,0.6177927,29.347484,377.5672)">
      <g
         id="g5869">
        <path
           transform="matrix(1.0457429,0,0,1.0096973,-32.218535,562.31358)"
           d="m 942.1875,230.58594 c 0,42.39217 -37.95086,76.75781 -84.76563,76.75781 -46.81476,0 -84.76562,-34.36564 -84.76562,-76.75781 0,-42.39217 37.95086,-76.75782 84.76562,-76.75782 46.81477,0 84.76563,34.36565 84.76563,76.75782 z"
           sodipodi:ry="76.757812"
           sodipodi:rx="84.765625"
           sodipodi:cy="230.58594"
           sodipodi:cx="857.42188"
           id="path5854"
           style="fill:none;stroke:#3a1236;stroke-width:14.59765816;stroke-miterlimit:4;stroke-opacity:1;stroke-dasharray:none"
           sodipodi:type="arc" />
        <g
           id="g5845"
           transform="matrix(1.0457429,0,0,1.0096973,-32.218535,-15.598968)">
          <path
             transform="translate(0,572.36218)"
             d="m 942.1875,230.58594 c 0,42.39217 -37.95086,76.75781 -84.76563,76.75781 -46.81476,0 -84.76562,-34.36564 -84.76562,-76.75781 0,-42.39217 37.95086,-76.75782 84.76562,-76.75782 46.81477,0 84.76563,34.36565 84.76563,76.75782 z"
             sodipodi:ry="76.757812"
             sodipodi:rx="84.765625"
             sodipodi:cy="230.58594"
             sodipodi:cx="857.42188"
             id="path5835"
             style="fill:#513562;fill-opacity:1;stroke:none"
             sodipodi:type="arc" />
          <path
             sodipodi:type="arc"
             style="fill:#694b82;fill-opacity:1;stroke:none"
             id="path5837"
             sodipodi:cx="857.42188"
             sodipodi:cy="230.58594"
             sodipodi:rx="84.765625"
             sodipodi:ry="76.757812"
             d="m 942.1875,230.58594 c 0,42.39217 -37.95086,76.75781 -84.76563,76.75781 -46.81476,0 -84.76562,-34.36564 -84.76562,-76.75781 0,-42.39217 37.95086,-76.75782 84.76562,-76.75782 46.81477,0 84.76563,34.36565 84.76563,76.75782 z"
             transform="matrix(0.81707532,0,0,0.81707532,163.76952,611.80766)" />
          <path
             transform="matrix(0.66382313,0,0,0.66382313,292.30621,650.27046)"
             d="m 942.1875,230.58594 c 0,42.39217 -37.95086,76.75781 -84.76563,76.75781 -46.81476,0 -84.76562,-34.36564 -84.76562,-76.75781 0,-42.39217 37.95086,-76.75782 84.76562,-76.75782 46.81477,0 84.76563,34.36565 84.76563,76.75782 z"
             sodipodi:ry="76.757812"
             sodipodi:rx="84.765625"
             sodipodi:cy="230.58594"
             sodipodi:cx="857.42188"
             id="path5839"
             style="fill:#887798;fill-opacity:1;stroke:none"
             sodipodi:type="arc" />
          <path
             sodipodi:type="arc"
             style="fill:#b6a8c2;fill-opacity:1;stroke:none"
             id="path5841"
             sodipodi:cx="857.42188"
             sodipodi:cy="230.58594"
             sodipodi:rx="84.765625"
             sodipodi:ry="76.757812"
             d="m 942.1875,230.58594 c 0,42.39217 -37.95086,76.75781 -84.76563,76.75781 -46.81476,0 -84.76562,-34.36564 -84.76562,-76.75781 0,-42.39217 37.95086,-76.75782 84.76562,-76.75782 46.81477,0 84.76563,34.36565 84.76563,76.75782 z"
             transform="matrix(0.55773268,0,0,0.55773268,385.57696,682.8767)" />
          <path
             transform="matrix(0.35739497,0,0,0.35739497,552.66339,731.2202)"
             d="m 942.1875,230.58594 c 0,42.39217 -37.95086,76.75781 -84.76563,76.75781 -46.81476,0 -84.76562,-34.36564 -84.76562,-76.75781 0,-42.39217 37.95086,-76.75782 84.76562,-76.75782 46.81477,0 84.76563,34.36565 84.76563,76.75782 z"
             sodipodi:ry="76.757812"
             sodipodi:rx="84.765625"
             sodipodi:cy="230.58594"
             sodipodi:cx="857.42188"
             id="path5843"
             style="fill:#3a1236;fill-opacity:1;stroke:none"
             sodipodi:type="arc" />
        </g>
      </g>
      <g
         id="g5807">
        <g
           id="g5774">
          <path
             transform="translate(0,572.36218)"
             inkscape:connector-curvature="0"
             id="path5772"
             d="m 724.60938,244.84375 173.4375,-13.28125 10.9375,26.95312 L 721.875,272.1875 z"
             style="fill:#3a1236;fill-opacity:1;stroke:none" />
          <g
             id="g5756"
             style="fill:none;stroke:#3a1236;stroke-width:20.12195206;stroke-miterlimit:4;stroke-opacity:1;stroke-dasharray:none"
             transform="matrix(0.74420025,-0.04322537,0.04322537,0.74420025,159.31256,250.58656)">
            <path
               sodipodi:nodetypes="cssssssssssc"
               inkscape:connector-curvature="0"
               id="path5758"
               d="m 816.99218,781.592 c 0,0 2.53907,0 5.27344,0 2.73438,0 4.00391,1.36719 4.00391,4.00391 0,2.63672 0,15.52734 0,17.87109 0,2.34375 0.0977,3.71094 2.63672,3.71094 2.53906,0 -0.58595,0 2.53905,0 3.125,0 4.49219,-0.58594 4.49219,2.92968 0,1.95313 0.0472,3.58268 -4.17562,3.58268 -4.22282,0 -9.30094,0 -12.42594,0 -3.125,0 -5.59099,-0.33419 -5.59099,-3.22797 0,-2.89377 0,-19.69064 0,-23.01095 0,-3.32032 0.70818,-5.85938 3.24724,-5.85938 z"
               style="fill:none;stroke:#3a1236;stroke-width:20.12195206;stroke-miterlimit:4;stroke-opacity:1;stroke-dasharray:none" />
            <path
               sodipodi:nodetypes="csssssssc"
               inkscape:connector-curvature="0"
               id="path5760"
               d="m 841.40626,799.29349 c 0,0 2.14844,0 3.71094,0 1.5625,0 2.83203,0.39062 2.83203,2.83203 0,2.4414 0,8.49609 0,9.86328 0,1.36719 -0.91371,1.7015 -2.94709,1.7015 -2.03338,0 -1.64276,0 -3.40057,0 -1.75781,0 -2.90153,-0.58594 -2.90153,-2.90153 0,-2.3156 0,-8.17497 0,-9.54216 0,-1.36719 1.14368,-1.95312 2.70622,-1.95312 z"
               style="fill:none;stroke:#3a1236;stroke-width:20.12195206;stroke-miterlimit:4;stroke-opacity:1;stroke-dasharray:none" />
            <path
               transform="translate(-3.125,573.72937)"
               d="m 850.19531,217.98828 c 0,2.0495 -1.66144,3.71094 -3.71094,3.71094 -2.04949,0 -3.71093,-1.66144 -3.71093,-3.71094 0,-2.04949 1.66144,-3.71094 3.71093,-3.71094 2.0495,0 3.71094,1.66145 3.71094,3.71094 z"
               sodipodi:ry="3.7109375"
               sodipodi:rx="3.7109375"
               sodipodi:cy="217.98828"
               sodipodi:cx="846.48438"
               id="path5762"
               style="fill:none;stroke:#3a1236;stroke-width:20.12195206;stroke-miterlimit:4;stroke-opacity:1;stroke-dasharray:none"
               sodipodi:type="arc" />
            <path
               sodipodi:nodetypes="cssssssssssssssssc"
               inkscape:connector-curvature="0"
               id="path5764"
               d="m 854.98695,784.00528 c 0,0 11.99873,0 14.18898,0 2.19024,0 3.24196,0.47964 3.24196,1.94087 0,1.46122 0,1.46122 0,2.60396 0,1.14274 0.0668,2.00754 -1.15906,2.00754 -1.22586,0 -3.89224,0 -4.74929,0 -0.85705,0 -1.71023,0.3809 -1.71023,1.71023 0,1.32932 0,16.08966 0,18.75604 0,2.66638 -0.31339,2.66638 -1.53944,2.66638 -1.22605,0 -1.60696,0 -3.13061,0 -1.52365,0 -2.09501,0 -2.09501,-2.09502 0,-2.09501 0,-17.90286 0,-19.04559 0,-1.14274 -0.6666,-1.85695 -1.85695,-1.85695 -1.19035,0 -2.90446,0 -4.52333,0 -1.61888,0 -2.21405,-0.66659 -2.21405,-2.21405 0,-1.54745 0,-1.73791 0,-2.59496 0,-0.85706 0.84594,-1.87845 2.05375,-1.87845 1.20781,0 3.49328,0 3.49328,0 z"
               style="fill:none;stroke:#3a1236;stroke-width:20.12195206;stroke-miterlimit:4;stroke-opacity:1;stroke-dasharray:none" />
            <path
               style="fill:none;stroke:#3a1236;stroke-width:20.12195206;stroke-miterlimit:4;stroke-opacity:1;stroke-dasharray:none"
               d="m 880.80171,784.00528 c 0,0 11.99873,0 14.18898,0 2.19024,0 3.24196,0.47964 3.24196,1.94087 0,1.46122 0,1.46122 0,2.60396 0,1.14274 0.0668,2.00754 -1.15906,2.00754 -1.22586,0 -3.89224,0 -4.74929,0 -0.85705,0 -1.71023,0.3809 -1.71023,1.71023 0,1.32932 0,16.08966 0,18.75604 0,2.66638 -0.31339,2.66638 -1.53944,2.66638 -1.22605,0 -1.60696,0 -3.13061,0 -1.52365,0 -2.09501,0 -2.09501,-2.09502 0,-2.09501 0,-17.90286 0,-19.04559 0,-1.14274 -0.6666,-1.85695 -1.85695,-1.85695 -1.19035,0 -2.90446,0 -4.52333,0 -1.61888,0 -2.21405,-0.66659 -2.21405,-2.21405 0,-1.54745 0,-1.73791 0,-2.59496 0,-0.85706 0.84594,-1.87845 2.05375,-1.87845 1.20781,0 3.49328,0 3.49328,0 z"
               id="path5766"
               inkscape:connector-curvature="0"
               sodipodi:nodetypes="cssssssssssssssssc" />
            <path
               style="fill:none;stroke:#3a1236;stroke-width:20.12195206;stroke-miterlimit:4;stroke-opacity:1;stroke-dasharray:none"
               d="m 904.69324,781.592 c 0,0 2.53907,0 5.27344,0 2.73438,0 4.00391,1.36719 4.00391,4.00391 0,2.63672 0,15.52734 0,17.87109 0,2.34375 0.0977,3.71094 2.63672,3.71094 2.53906,0 -0.58595,0 2.53905,0 3.125,0 4.49219,-0.58594 4.49219,2.92968 0,1.95313 0.0472,3.58268 -4.17562,3.58268 -4.22282,0 -9.30094,0 -12.42594,0 -3.125,0 -5.59099,-0.33419 -5.59099,-3.22797 0,-2.89377 0,-19.69064 0,-23.01095 0,-3.32032 0.70818,-5.85938 3.24724,-5.85938 z"
               id="path5768"
               inkscape:connector-curvature="0"
               sodipodi:nodetypes="cssssssssssc" />
            <path
               sodipodi:nodetypes="ssssssssssssssssssssss"
               inkscape:connector-curvature="0"
               id="path5770"
               d="m 932.29934,781.46374 c 17.1875,0 7.80215,0 12.88028,0 5.07812,0 4.91133,0.73217 4.91133,3.00281 0,2.27063 0,3.4425 0,5.78625 0,2.34375 -2.00232,2.11263 -4.91133,2.11263 -2.90902,0 -0.96622,0 -3.7006,0 -2.73437,0 -2.76838,0.78125 -2.76838,2.65462 0,1.87338 -0.15795,3.35237 1.59819,3.35237 1.75613,0 -0.197,0 2.14675,0 2.34375,0 2.54205,0.76378 2.54205,2.27912 0,1.51534 0.0472,2.32166 -2.51697,2.32166 -2.56414,0 -1.19695,0 -2.36883,0 -1.17187,0 -1.40119,0.78085 -1.40119,2.62398 0,1.84313 0,1.06187 0,2.42906 0,1.36718 1.17018,1.23849 4.50834,1.23849 3.92411,0 1.50323,0 4.04229,0 2.53906,0 2.82968,0.96978 2.82968,2.40471 0,1.43493 -1.22612,2.02086 -2.82968,2.02086 -1.60356,0 -10.86037,0 -14.18068,0 -3.32031,0 -5.18442,-0.32239 -5.18442,-2.99323 0,-2.67083 0,-24.54583 0,-26.69427 0,-2.14843 0.69223,-2.53906 4.40317,-2.53906 z"
               style="fill:none;stroke:#3a1236;stroke-width:20.12195206;stroke-miterlimit:4;stroke-opacity:1;stroke-dasharray:none" />
          </g>
          <path
             style="fill:#3a1236;fill-opacity:1;stroke:#3a1236;stroke-width:15;stroke-miterlimit:4;stroke-opacity:1;stroke-dasharray:none"
             d="m 906.74193,862.5249 c -16.47548,5.10422 -25.84383,22.33639 -21.37546,38.91403 0.0187,0.0607 0.006,0.12692 0.0253,0.18838 l 0.28492,0.9259 4.08994,13.29121 -7.3475,2.26096 c -2.11809,0.65177 -3.2984,2.88153 -2.64666,4.99952 l 2.16905,7.04882 c 0.65174,2.11799 2.88143,3.29843 4.99952,2.64665 l 11.17059,-3.43739 8.57208,-2.63778 c 2.11799,-0.65174 3.2984,-2.88153 2.64666,-4.99952 l -2.16905,-7.04882 -5.02741,-16.33773 c 0.007,-0.0147 0.0185,-0.0262 0.0206,-0.039 -0.0527,-0.13721 -0.10355,-0.27428 -0.15849,-0.40897 l -0.35845,-1.16485 -0.0276,-0.0896 c -1.89055,-7.69795 2.51249,-15.61716 10.16392,-17.97164 7.65143,-2.35448 15.74493,1.71932 18.50924,9.14839 l 0.0276,0.0896 0.35844,1.16485 c 0.0302,0.1423 0.0652,0.28426 0.0989,0.42732 0.009,0.009 0.0252,0.0125 0.039,0.0207 l 0.7077,2.29982 2.29983,-0.70769 c 0.0145,0.007 0.0261,0.0184 0.039,0.0206 0.13722,-0.0527 0.27432,-0.10345 0.40898,-0.15849 l 1.25445,-0.38602 c 7.69795,-1.89054 15.61715,2.51249 17.97164,10.16392 2.35448,7.65144 -1.71932,15.74493 -9.1484,18.50925 l -0.0896,0.0275 -1.16485,0.35845 c -0.14231,0.0302 -0.28426,0.0652 -0.42733,0.0988 -0.009,0.009 -0.0125,0.0251 -0.0206,0.039 l -16.33773,5.02741 -7.04882,2.16904 c -2.11799,0.65175 -3.2984,2.88153 -2.64666,4.99953 l 2.63778,8.57208 3.43739,11.17058 c 0.65178,2.11809 2.88153,3.2984 4.99952,2.64666 l 7.04882,-2.16905 c 2.11799,-0.65174 3.29843,-2.88143 2.64666,-4.99952 l -2.26096,-7.3475 13.29121,-4.08994 0.9259,-0.28491 c 0.0615,-0.0189 0.10934,-0.0663 0.17004,-0.085 16.22184,-5.62461 25.20596,-23.06018 20.16463,-39.55502 -0.006,-0.0199 -0.0123,-0.0399 -0.0184,-0.0597 -0.006,-0.0199 -0.0122,-0.0399 -0.0184,-0.0597 -4.01245,-12.95131 -15.5212,-21.51555 -28.31318,-22.41419 -7.93483,-10.07377 -21.4877,-14.7767 -34.45425,-10.81375 -0.0199,0.006 -0.0399,0.0123 -0.0597,0.0184 -0.0199,0.006 -0.0399,0.0122 -0.0597,0.0184 z m -9.01533,10.22888 c 2.33285,-0.71786 4.8193,0.57344 5.53715,2.90627 0.71786,2.33283 -0.60328,4.82848 -2.93613,5.54634 -2.33285,0.71786 -4.79862,-0.6125 -5.51648,-2.94533 -0.71785,-2.33282 0.58261,-4.78942 2.91546,-5.50728 z m 22.34117,-6.87478 c 2.33285,-0.71786 4.78944,0.58263 5.50729,2.91546 0.71785,2.33283 -0.57342,4.81929 -2.90627,5.53715 -2.33285,0.71786 -4.82849,-0.6033 -5.54634,-2.93613 -0.71785,-2.33283 0.61248,-4.79862 2.94532,-5.51648 z m 15.74534,11.11057 c 2.33411,-0.71825 4.8281,0.60202 5.54635,2.93613 0.71825,2.33411 -0.61122,4.79823 -2.94533,5.51648 -2.33411,0.71824 -4.78903,-0.58135 -5.50728,-2.91546 -0.71825,-2.33411 0.57215,-4.81891 2.90626,-5.53715 z m -44.80641,13.9839 c 2.33411,-0.71824 4.78904,0.58135 5.50729,2.91546 0.71825,2.33411 -0.57216,4.81891 -2.90627,5.53715 -2.33411,0.71825 -4.82809,-0.60202 -5.54634,-2.93613 -0.71825,-2.33411 0.61121,-4.79823 2.94532,-5.51648 z m 62.88596,-7.18818 c 2.33283,-0.71786 4.78943,0.5826 5.50728,2.91545 0.71786,2.33285 -0.57343,4.8193 -2.90626,5.53716 -2.33283,0.71785 -4.82849,-0.60329 -5.54635,-2.93614 -0.71785,-2.33285 0.6125,-4.79862 2.94533,-5.51647 z m -58.56161,22.72868 c 2.33256,-0.71777 4.78943,0.58263 5.50728,2.91546 0.71786,2.33283 -0.5737,4.81938 -2.90626,5.53715 -2.33304,0.71792 -4.82849,-0.6033 -5.54635,-2.93613 -0.71785,-2.33283 0.61229,-4.79856 2.94533,-5.51648 z m 65.4272,-0.41738 c 2.33283,-0.71785 4.79861,0.61248 5.51647,2.94533 0.71786,2.33285 -0.58263,4.78943 -2.91545,5.50728 -2.33283,0.71785 -4.8193,-0.57342 -5.53716,-2.90626 -0.71786,-2.33285 0.60331,-4.8285 2.93614,-5.54635 z m -11.28058,15.83035 c 2.33411,-0.71824 4.78903,0.58135 5.50728,2.91546 0.71825,2.33411 -0.57215,4.81891 -2.90627,5.53715 -2.33411,0.71825 -4.82809,-0.60202 -5.54634,-2.93613 -0.71825,-2.33411 0.61122,-4.79823 2.94533,-5.51648 z m -15.28316,5.16065 c 2.33283,-0.71786 4.78952,0.58289 5.50729,2.91546 0.71792,2.33303 -0.57344,4.81929 -2.90627,5.53715 -2.33283,0.71785 -4.82842,-0.6031 -5.54634,-2.93614 -0.71777,-2.33256 0.61249,-4.79862 2.94532,-5.51647 z"
             id="path5681"
             inkscape:connector-curvature="0" />
          <g
             style="stroke:#3a1236;stroke-width:15;stroke-miterlimit:4;stroke-opacity:1;stroke-dasharray:none"
             id="g5470">
            <path
               sodipodi:nodetypes="zssssssssz"
               inkscape:connector-curvature="0"
               id="path5472"
               d="m 677.66117,814.9609 c 5.25,-1 34.59619,-9.26777 43.59619,-10.76777 9,-1.5 11,0 13,7 2,7 5,13 -4.5,14.5 -9.5,1.5 -16.83465,2.63071 -15,10.56066 2.91421,12.59619 14.82843,32.52513 8,35.93934 -8.94975,4.47487 -16,10 -18,-4.5 -2,-14.5 -2.57107,-33.05252 -7.58579,-32.73223 -7.82843,0.5 -19.57106,4.2071 -21.57106,-1.7929 -2,-6 -3.18934,-17.2071 2.06066,-18.2071 z"
               style="fill:#ffffff;fill-opacity:1;stroke:#3a1236;stroke-width:15;stroke-miterlimit:4;stroke-opacity:1;stroke-dasharray:none" />
            <g
               style="stroke:#3a1236;stroke-width:15;stroke-miterlimit:4;stroke-opacity:1;stroke-dasharray:none"
               id="g5474">
              <path
                 style="fill:#ffffff;fill-opacity:1;stroke:#3a1236;stroke-width:15;stroke-linecap:butt;stroke-linejoin:miter;stroke-miterlimit:4;stroke-opacity:1;stroke-dasharray:none;stroke-dashoffset:14.4"
                 d="m 740.05994,832.29004 c -11.70893,1.40507 -12.1773,4.99582 -12.80177,13.114 -0.62448,8.11819 -3.12238,20.29548 6.557,22.48115 9.67938,2.18566 16.79209,0.4613 24.04233,-2.49791 7.64699,-3.12114 1.87343,-18.42205 -1.56119,-24.97905 -3.28466,-6.27073 -4.52746,-9.52325 -16.23637,-8.11819 z"
                 id="path5476"
                 inkscape:connector-curvature="0"
                 sodipodi:nodetypes="zssssz" />
              <path
                 inkscape:connector-curvature="0"
                 id="path5478"
                 d="m 741.20829,849.32956 c -2.21551,0.75921 -3.88509,2.78606 -2.71278,6.20706 1.55193,4.52878 10.60926,6.0183 10.60926,6.0183 0,0 6.2401,-6.73164 4.68817,-11.26042 -1.17231,-3.421 -3.73411,-3.99784 -5.94961,-3.23863 -2.41101,0.8262 -2.60699,3.21029 -2.60699,3.21029 0,0 -1.61704,-1.7628 -4.02805,-0.9366 z"
                 style="fill:#3a1236;fill-opacity:1;stroke:#3a1236;stroke-width:15;stroke-miterlimit:4;stroke-opacity:1;stroke-dasharray:none" />
            </g>
            <path
               sodipodi:nodetypes="zsssssssssz"
               inkscape:connector-curvature="0"
               id="path5480"
               d="m 764.88061,829.72208 c 4.36658,-2.39139 10.70658,-5.0283 11.96341,2.47658 1.25682,7.5049 0.56053,10.35564 2.39057,15.62169 1.35152,3.88914 2.94998,5.03095 5.18665,4.57637 2.62053,-0.5326 3.08385,-1.92948 2.61231,-7.9556 -0.56341,-7.19985 -1.79598,-9.2646 -2.19457,-11.71659 -0.6599,-4.05953 1.27725,-5.85533 4.86163,-5.30444 6.5393,1.00505 9.26166,2.58987 10.1998,10.3406 1.01171,8.35853 5.11072,25.77645 -16.36548,26.05724 -21.82035,0.2853 -19.68928,-13.49745 -21.58174,-20.21815 -1.99952,-7.10089 -1.43914,-11.48631 2.92742,-13.8777 z"
               style="fill:#ffffff;fill-opacity:1;stroke:#3a1236;stroke-width:15;stroke-miterlimit:4;stroke-opacity:1;stroke-dasharray:none" />
            <g
               style="stroke:#3a1236;stroke-width:15;stroke-miterlimit:4;stroke-opacity:1;stroke-dasharray:none"
               transform="translate(-6.7071065,3.3786794)"
               id="g5482">
              <path
                 style="fill:#ffffff;fill-opacity:1;stroke:#3a1236;stroke-width:15;stroke-linecap:butt;stroke-linejoin:miter;stroke-miterlimit:4;stroke-opacity:1;stroke-dasharray:none;stroke-dashoffset:14.4"
                 d="m 814.65274,822.03268 c 5.30578,-0.67308 13.25257,-1.89435 21.5882,0.004 9.76628,2.22338 12.78474,8.20326 13.39962,13.83409 0.61486,5.63083 -0.40169,17.93464 -9.47278,18.69718 -9.07109,0.76254 -9.96984,-1.62149 -12.39278,-0.27269 -2.42293,1.34878 0.8149,6.96887 1.48964,13.69906 0.39731,3.96302 -1.08763,5.23367 -5.15324,6.46454 -4.06559,1.23086 -9.90762,0.43245 -10.44151,-1.24424 -0.53389,-1.67669 -4.53875,-37.32415 -4.18915,-43.32576 0.16235,-2.7871 -0.1338,-7.18243 5.172,-7.85553 z"
                 id="path5484"
                 inkscape:connector-curvature="0"
                 sodipodi:nodetypes="csszzsssszc" />
              <path
                 inkscape:connector-curvature="0"
                 id="path5486"
                 d="m 828.43692,837.79452 c -2.2361,0.8158 -3.8921,2.90879 -2.6324,6.36159 1.66761,4.5709 10.90106,5.90326 10.90106,5.90326 0,0 6.2062,-6.96525 4.53859,-11.53613 -1.25969,-3.45282 -3.87442,-3.98772 -6.11053,-3.1719 -2.43342,0.88777 -2.58487,3.31431 -2.58487,3.31431 0,0 -1.67844,-1.75894 -4.11185,-0.87113 z"
                 style="fill:#3a1236;fill-opacity:1;stroke:#3a1236;stroke-width:15;stroke-miterlimit:4;stroke-opacity:1;stroke-dasharray:none" />
            </g>
            <g
               style="stroke:#3a1236;stroke-width:15;stroke-miterlimit:4;stroke-opacity:1;stroke-dasharray:none"
               transform="translate(-0.70710652,-2.1213206)"
               id="g5488">
              <path
                 sodipodi:nodetypes="zssssz"
                 inkscape:connector-curvature="0"
                 id="path5490"
                 d="m 862.13857,829.05621 c -11.03783,-0.62228 -12.05868,2.61526 -13.96571,10.00612 -1.90704,7.39086 -6.20858,18.22126 2.36739,21.82519 8.57596,3.60393 15.42375,3.17814 22.60087,1.63511 7.56987,-1.62747 4.74872,-16.69677 2.65324,-23.31194 -2.00397,-6.32637 -2.61797,-9.53221 -13.65579,-10.15448 z"
                 style="fill:#ffffff;fill-opacity:1;stroke:#3a1236;stroke-width:15;stroke-linecap:butt;stroke-linejoin:miter;stroke-miterlimit:4;stroke-opacity:1;stroke-dasharray:none;stroke-dashoffset:14.4" />
              <path
                 style="fill:#3a1236;fill-opacity:1;stroke:#3a1236;stroke-width:15;stroke-miterlimit:4;stroke-opacity:1;stroke-dasharray:none"
                 d="m 859.67825,844.50812 c -2.32342,0.29432 -4.36915,1.94079 -3.91455,5.52839 0.60146,4.74938 9.16925,8.04371 9.16925,8.04371 0,0 7.47498,-5.32715 6.87316,-10.07648 -0.45429,-3.58764 -2.8463,-4.67171 -5.1697,-4.3773 -2.52848,0.31995 -3.20355,2.61527 -3.20355,2.61527 0,0 -1.22619,-2.05397 -3.75461,-1.73359 z"
                 id="path5492"
                 inkscape:connector-curvature="0" />
            </g>
            <path
               sodipodi:nodetypes="zsssssssssssssssssz"
               inkscape:connector-curvature="0"
               id="path5494"
               d="m 881.66562,830.58992 c 1.99063,-0.86462 4.09377,-1.06132 6.67446,-0.92598 3.98437,0.20893 4.14745,1.17776 5.11888,2.62984 3.43103,5.12868 7.25551,13.3596 8.36949,15.27663 1.18773,2.04394 2.31989,3.01121 2.42463,1.18055 0.14811,-2.58897 -1.54599,-14.6206 -1.96475,-16.52521 -0.65082,-2.96006 0.42434,-3.40762 3.76166,-4.36695 1.50678,-0.43313 2.52918,-0.75781 5.38242,-0.87008 3.46979,-0.13653 3.12775,0.62174 3.23861,5.16327 0.40343,16.52771 -0.55638,29.61533 -2.21186,30.69139 -1.89519,1.23185 -5.92108,1.99046 -8.34172,2.00543 -1.56221,0.01 -10.46936,-15.38093 -12.57286,-17.74643 -0.91632,-1.03045 -0.53639,1.23914 -0.31724,3.60767 0.21917,2.36854 1.68494,9.74199 1.74498,13.77981 0.0193,1.29198 -0.8705,1.73833 -2.90327,2.48124 -1.18375,0.4326 -4.03575,0.57731 -5.22161,0.43909 -3.45851,-0.40311 -4.5237,-0.8003 -4.96203,-5.53737 -0.43832,-4.73706 -0.52565,-25.57235 -0.52738,-26.64912 -0.004,-2.31504 0.31697,-3.76919 2.30758,-4.6338 z"
               style="fill:#ffffff;fill-opacity:1;stroke:#3a1236;stroke-width:15;stroke-linecap:butt;stroke-linejoin:miter;stroke-miterlimit:4;stroke-opacity:1;stroke-dasharray:none;stroke-dashoffset:14.4" />
            <path
               sodipodi:nodetypes="cssssssssssscssssssssssszc"
               inkscape:connector-curvature="0"
               id="path5496"
               d="m 919.77141,826.60672 c 3.54214,-0.40788 4.85473,-0.26871 8.43019,-0.0997 3.57547,0.16899 2.58555,3.91543 3.61133,8.8409 1.02577,4.92546 2.03041,18.2492 3.23893,18.56853 1.20853,0.31934 6.99274,-19.61445 7.6314,-22.0315 0.63865,-2.41704 0.169,-3.57546 5.01686,-3.32884 4.84785,0.2466 9.92364,1.58778 8.35453,5.56904 -1.56912,3.98126 -18.47048,39.57846 -29.22468,49.23038 -10.71458,9.61633 -25.43042,9.49534 -44.0691,7.10265 -11.78778,-1.51322 -20.37322,-8.75694 -26.54358,-9.87015 -6.17036,-1.11319 -9.52564,-1.04864 -12.58122,2.61176 -2.74233,3.28513 -3.76583,9.9534 2.19918,12.82243 5.96501,2.86902 9.13959,-3.27383 9.13959,-3.27383 0,0 -2.98779,2.00427 -5.60048,1.62317 -2.84758,-0.41537 -4.78841,-2.42885 -3.7027,-6.53784 1.08571,-4.10897 3.78711,-4.49053 7.23788,-3.90559 4.09491,0.69416 7.19192,3.94431 6.07406,8.32801 -1.02356,4.01395 -5.4947,8.32821 -15.95246,7.3495 -9.79951,-0.9171 -16.51704,-5.81445 -12.16685,-22.27822 2.26743,-8.58138 9.23112,-13.6307 19.69797,-12.89584 19.46093,1.36633 17.40133,13.93009 34.65003,18.30625 16.95712,4.30217 29.40621,1.72245 35.10673,-3.21261 5.24725,-4.54264 7.81604,-9.98934 7.89097,-15.37741 0.10551,-7.58609 -3.57327,-13.14609 -10.03767,-29.04258 -1.0143,-2.49424 -1.94307,-8.09059 1.59862,-8.49857 z"
               style="fill:#ffffff;fill-opacity:1;stroke:#3a1236;stroke-width:15;stroke-linecap:butt;stroke-linejoin:miter;stroke-miterlimit:4;stroke-opacity:1;stroke-dasharray:none;stroke-dashoffset:14.4" />
          </g>
        </g>
        <path
           style="fill:#d94b33;fill-opacity:1;stroke:#3a1236;stroke-width:15;stroke-miterlimit:4;stroke-opacity:1;stroke-dasharray:none"
           d="m 746.51436,783.74219 c -7.52881,3.53195 -12.64303,11.32872 -7.18927,22.95412 7.21975,15.38982 39.76492,17.16501 39.76492,17.16501 0,0 19.43903,-26.16225 12.21928,-41.55208 -5.45376,-11.6254 -14.71874,-12.67653 -22.24756,-9.14458 -8.19314,3.8436 -7.9682,12.33482 -7.9682,12.33482 0,0 -6.38602,-5.6009 -14.57917,-1.75729 z"
           id="path5708"
           inkscape:connector-curvature="0" />
      </g>
      <g
         id="g5803">
        <path
           inkscape:connector-curvature="0"
           id="path5683"
           d="m 746.51436,783.74219 c -7.52881,3.53195 -12.64303,11.32872 -7.18927,22.95412 7.21975,15.38982 39.76492,17.16501 39.76492,17.16501 0,0 19.43903,-26.16225 12.21928,-41.55208 -5.45376,-11.6254 -14.71874,-12.67653 -22.24756,-9.14458 -8.19314,3.8436 -7.9682,12.33482 -7.9682,12.33482 0,0 -6.38602,-5.6009 -14.57917,-1.75729 z"
           style="fill:#ffffff;fill-opacity:1;stroke:none" />
        <path
           style="fill:#3a1236;fill-opacity:1;stroke:none"
           d="m 748.55585,791.28851 -1.32052,21.34708 4.52344,-0.94307 0.83194,-13.44867 c 0.12573,-2.03235 2.18159,-2.77378 2.31113,-1.91472 0.16238,1.07713 0.19555,0.70466 0.0759,2.63922 l -0.75534,12.21052 4.92733,-1.02729 0.83987,-13.57674 c 0.11747,-1.89892 2.36304,-2.77716 2.49722,-1.70065 0.11291,0.90557 0.1049,0.88287 0.0242,2.18641 l -0.51765,8.36806 c -0.25778,4.16705 3.29278,3.44357 4.87044,3.11464 1.06747,-0.22255 3.12334,-2.04637 4.38601,-3.23234 0.57802,1.23429 2.1044,1.87916 3.61082,1.56511 3.77948,-0.78797 4.48868,-2.95873 4.48868,-2.95873 0,0 0.34675,3.31906 -0.0607,5.4913 -1.05165,5.6076 -6.28531,4.93475 -6.28531,4.93475 0,0 1.70324,-0.46638 1.79136,-1.89065 0.0618,-0.99964 -0.53429,-1.5322 -1.79524,-1.26931 -1.27912,0.26669 -1.88771,1.51446 -1.95478,2.59903 -0.14005,2.26378 3.17811,2.07672 4.83642,1.73099 2.41693,-0.50391 5.81076,-2.75427 6.8666,-5.3088 0.68186,-1.64968 1.28263,-5.91139 1.36735,-7.28092 l 1.19376,-19.29774 -4.76577,0.9936 -0.76327,12.33862 c -0.0866,1.40089 -1.37953,3.02695 -2.23145,3.20456 -0.85194,0.1776 -1.18252,-0.21839 -1.13507,-0.98554 l 0.85835,-13.87559 -5.21004,1.08623 -0.98248,15.88221 c -0.77582,1.12945 -1.74779,2.303 -2.66593,2.49442 -1.89319,0.3947 -1.6312,-1.34303 -1.59407,-1.9434 l 0.67876,-10.9724 c 0.18425,-2.97836 -1.75951,-4.14252 -3.99853,-3.6757 -3.09097,0.6444 -4.19277,2.68629 -4.19277,2.68629 0,0 -0.16075,-1.77865 -2.30969,-1.33063 -3.19461,0.66603 -4.03121,2.65264 -4.03121,2.65264 l 0.11357,-1.83586 -4.52347,0.94307 z"
           id="path5703"
           inkscape:connector-curvature="0" />
      </g>
      <path
         sodipodi:nodetypes="zssssssssz"
         inkscape:connector-curvature="0"
         id="path5400"
         d="m 677.66117,814.9609 c 5.25,-1 34.59619,-9.26777 43.59619,-10.76777 9,-1.5 11,0 13,7 2,7 5,13 -4.5,14.5 -9.5,1.5 -16.83465,2.63071 -15,10.56066 2.91421,12.59619 14.82843,32.52513 8,35.93934 -8.94975,4.47487 -16,10 -18,-4.5 -2,-14.5 -2.57107,-33.05252 -7.58579,-32.73223 -7.82843,0.5 -19.57106,4.2071 -21.57106,-1.7929 -2,-6 -3.18934,-17.2071 2.06066,-18.2071 z"
         style="fill:#ffffff;fill-opacity:1;stroke:none" />
      <g
         style="stroke:none"
         id="g5437">
        <path
           style="fill:#ffffff;fill-opacity:1;stroke:none"
           d="m 740.05994,832.29004 c -11.70893,1.40507 -12.1773,4.99582 -12.80177,13.114 -0.62448,8.11819 -3.12238,20.29548 6.557,22.48115 9.67938,2.18566 16.79209,0.4613 24.04233,-2.49791 7.64699,-3.12114 1.87343,-18.42205 -1.56119,-24.97905 -3.28466,-6.27073 -4.52746,-9.52325 -16.23637,-8.11819 z"
           id="path5402"
           inkscape:connector-curvature="0"
           sodipodi:nodetypes="zssssz" />
        <path
           inkscape:connector-curvature="0"
           id="path5411"
           d="m 741.20829,849.32956 c -2.21551,0.75921 -3.88509,2.78606 -2.71278,6.20706 1.55193,4.52878 10.60926,6.0183 10.60926,6.0183 0,0 6.2401,-6.73164 4.68817,-11.26042 -1.17231,-3.421 -3.73411,-3.99784 -5.94961,-3.23863 -2.41101,0.8262 -2.60699,3.21029 -2.60699,3.21029 0,0 -1.61704,-1.7628 -4.02805,-0.9366 z"
           style="fill:#3a1236;fill-opacity:1;stroke:none" />
      </g>
      <path
         sodipodi:nodetypes="zsssssssssz"
         inkscape:connector-curvature="0"
         id="path5417"
         d="m 764.88061,829.72208 c 4.36658,-2.39139 10.70658,-5.0283 11.96341,2.47658 1.25682,7.5049 0.56053,10.35564 2.39057,15.62169 1.35152,3.88914 2.94998,5.03095 5.18665,4.57637 2.62053,-0.5326 3.08385,-1.92948 2.61231,-7.9556 -0.56341,-7.19985 -1.79598,-9.2646 -2.19457,-11.71659 -0.6599,-4.05953 1.27725,-5.85533 4.86163,-5.30444 6.5393,1.00505 9.26166,2.58987 10.1998,10.3406 1.01171,8.35853 5.11072,25.77645 -16.36548,26.05724 -21.82035,0.2853 -19.68928,-13.49745 -21.58174,-20.21815 -1.99952,-7.10089 -1.43914,-11.48631 2.92742,-13.8777 z"
         style="fill:#ffffff;fill-opacity:1;stroke:none" />
      <g
         style="stroke:none"
         transform="translate(-6.7071065,3.3786794)"
         id="g5433">
        <path
           style="fill:#ffffff;fill-opacity:1;stroke:none"
           d="m 814.65274,822.03268 c 5.30578,-0.67308 13.25257,-1.89435 21.5882,0.004 9.76628,2.22338 12.78474,8.20326 13.39962,13.83409 0.61486,5.63083 -0.40169,17.93464 -9.47278,18.69718 -9.07109,0.76254 -9.96984,-1.62149 -12.39278,-0.27269 -2.42293,1.34878 0.8149,6.96887 1.48964,13.69906 0.39731,3.96302 -1.08763,5.23367 -5.15324,6.46454 -4.06559,1.23086 -9.90762,0.43245 -10.44151,-1.24424 -0.53389,-1.67669 -4.53875,-37.32415 -4.18915,-43.32576 0.16235,-2.7871 -0.1338,-7.18243 5.172,-7.85553 z"
           id="path5419"
           inkscape:connector-curvature="0"
           sodipodi:nodetypes="csszzsssszc" />
        <path
           inkscape:connector-curvature="0"
           id="path5421"
           d="m 828.43692,837.79452 c -2.2361,0.8158 -3.8921,2.90879 -2.6324,6.36159 1.66761,4.5709 10.90106,5.90326 10.90106,5.90326 0,0 6.2062,-6.96525 4.53859,-11.53613 -1.25969,-3.45282 -3.87442,-3.98772 -6.11053,-3.1719 -2.43342,0.88777 -2.58487,3.31431 -2.58487,3.31431 0,0 -1.67844,-1.75894 -4.11185,-0.87113 z"
           style="fill:#3a1236;fill-opacity:1;stroke:none" />
      </g>
      <g
         style="stroke:none"
         transform="translate(-0.70710652,-2.1213206)"
         id="g5449">
        <path
           sodipodi:nodetypes="zssssz"
           inkscape:connector-curvature="0"
           id="path5425"
           d="m 862.13857,829.05621 c -11.03783,-0.62228 -12.05868,2.61526 -13.96571,10.00612 -1.90704,7.39086 -6.20858,18.22126 2.36739,21.82519 8.57596,3.60393 15.42375,3.17814 22.60087,1.63511 7.56987,-1.62747 4.74872,-16.69677 2.65324,-23.31194 -2.00397,-6.32637 -2.61797,-9.53221 -13.65579,-10.15448 z"
           style="fill:#ffffff;fill-opacity:1;stroke:none" />
        <path
           style="fill:#3a1236;fill-opacity:1;stroke:none"
           d="m 859.67825,844.50812 c -2.32342,0.29432 -4.36915,1.94079 -3.91455,5.52839 0.60146,4.74938 9.16925,8.04371 9.16925,8.04371 0,0 7.47498,-5.32715 6.87316,-10.07648 -0.45429,-3.58764 -2.8463,-4.67171 -5.1697,-4.3773 -2.52848,0.31995 -3.20355,2.61527 -3.20355,2.61527 0,0 -1.22619,-2.05397 -3.75461,-1.73359 z"
           id="path5427"
           inkscape:connector-curvature="0" />
      </g>
      <path
         sodipodi:nodetypes="zsssssssssssssssssz"
         inkscape:connector-curvature="0"
         id="path5447"
         d="m 881.66562,830.58992 c 1.99063,-0.86462 4.09377,-1.06132 6.67446,-0.92598 3.98437,0.20893 4.14745,1.17776 5.11888,2.62984 3.43103,5.12868 7.25551,13.3596 8.36949,15.27663 1.18773,2.04394 2.31989,3.01121 2.42463,1.18055 0.14811,-2.58897 -1.54599,-14.6206 -1.96475,-16.52521 -0.65082,-2.96006 0.42434,-3.40762 3.76166,-4.36695 1.50678,-0.43313 2.52918,-0.75781 5.38242,-0.87008 3.46979,-0.13653 3.12775,0.62174 3.23861,5.16327 0.40343,16.52771 -0.55638,29.61533 -2.21186,30.69139 -1.89519,1.23185 -5.92108,1.99046 -8.34172,2.00543 -1.56221,0.01 -10.46936,-15.38093 -12.57286,-17.74643 -0.91632,-1.03045 -0.53639,1.23914 -0.31724,3.60767 0.21917,2.36854 1.68494,9.74199 1.74498,13.77981 0.0193,1.29198 -0.8705,1.73833 -2.90327,2.48124 -1.18375,0.4326 -4.03575,0.57731 -5.22161,0.43909 -3.45851,-0.40311 -4.5237,-0.8003 -4.96203,-5.53737 -0.43832,-4.73706 -0.52565,-25.57235 -0.52738,-26.64912 -0.004,-2.31504 0.31697,-3.76919 2.30758,-4.6338 z"
         style="fill:#ffffff;fill-opacity:1;stroke:none" />
      <path
         sodipodi:nodetypes="cssssssssssscssssssssssszc"
         inkscape:connector-curvature="0"
         id="path5453"
         d="m 919.77141,826.60672 c 3.54214,-0.40788 4.85473,-0.26871 8.43019,-0.0997 3.57547,0.16899 2.58555,3.91543 3.61133,8.8409 1.02577,4.92546 2.03041,18.2492 3.23893,18.56853 1.20853,0.31934 6.99274,-19.61445 7.6314,-22.0315 0.63865,-2.41704 0.169,-3.57546 5.01686,-3.32884 4.84785,0.2466 9.92364,1.58778 8.35453,5.56904 -1.56912,3.98126 -18.47048,39.57846 -29.22468,49.23038 -10.71458,9.61633 -25.43042,9.49534 -44.0691,7.10265 -11.78778,-1.51322 -20.37322,-8.75694 -26.54358,-9.87015 -6.17036,-1.11319 -9.52564,-1.04864 -12.58122,2.61176 -2.74233,3.28513 -3.76583,9.9534 2.19918,12.82243 5.96501,2.86902 9.13959,-3.27383 9.13959,-3.27383 0,0 -2.98779,2.00427 -5.60048,1.62317 -2.84758,-0.41537 -4.78841,-2.42885 -3.7027,-6.53784 1.08571,-4.10897 3.78711,-4.49053 7.23788,-3.90559 4.09491,0.69416 7.19192,3.94431 6.07406,8.32801 -1.02356,4.01395 -5.4947,8.32821 -15.95246,7.3495 -9.79951,-0.9171 -16.51704,-5.81445 -12.16685,-22.27822 2.26743,-8.58138 9.23112,-13.6307 19.69797,-12.89584 19.46093,1.36633 17.40133,13.93009 34.65003,18.30625 16.95712,4.30217 29.40621,1.72245 35.10673,-3.21261 5.24725,-4.54264 7.81604,-9.98934 7.89097,-15.37741 0.10551,-7.58609 -3.57327,-13.14609 -10.03767,-29.04258 -1.0143,-2.49424 -1.94307,-8.09059 1.59862,-8.49857 z"
         style="fill:#ffffff;fill-opacity:1;stroke:none" />
      <path
         inkscape:connector-curvature="0"
         id="rect5502"
         d="m 906.74193,862.5249 c -16.47548,5.10422 -25.84383,22.33639 -21.37546,38.91403 0.0187,0.0607 0.006,0.12692 0.0253,0.18838 l 0.28492,0.9259 4.08994,13.29121 -7.3475,2.26096 c -2.11809,0.65177 -3.2984,2.88153 -2.64666,4.99952 l 2.16905,7.04882 c 0.65174,2.11799 2.88143,3.29843 4.99952,2.64665 l 11.17059,-3.43739 8.57208,-2.63778 c 2.11799,-0.65174 3.2984,-2.88153 2.64666,-4.99952 l -2.16905,-7.04882 -5.02741,-16.33773 c 0.007,-0.0147 0.0185,-0.0262 0.0206,-0.039 -0.0527,-0.13721 -0.10355,-0.27428 -0.15849,-0.40897 l -0.35845,-1.16485 -0.0276,-0.0896 c -1.89055,-7.69795 2.51249,-15.61716 10.16392,-17.97164 7.65143,-2.35448 15.74493,1.71932 18.50924,9.14839 l 0.0276,0.0896 0.35844,1.16485 c 0.0302,0.1423 0.0652,0.28426 0.0989,0.42732 0.009,0.009 0.0252,0.0125 0.039,0.0207 l 0.7077,2.29982 2.29983,-0.70769 c 0.0145,0.007 0.0261,0.0184 0.039,0.0206 0.13722,-0.0527 0.27432,-0.10345 0.40898,-0.15849 l 1.25445,-0.38602 c 7.69795,-1.89054 15.61715,2.51249 17.97164,10.16392 2.35448,7.65144 -1.71932,15.74493 -9.1484,18.50925 l -0.0896,0.0275 -1.16485,0.35845 c -0.14231,0.0302 -0.28426,0.0652 -0.42733,0.0988 -0.009,0.009 -0.0125,0.0251 -0.0206,0.039 l -16.33773,5.02741 -7.04882,2.16904 c -2.11799,0.65175 -3.2984,2.88153 -2.64666,4.99953 l 2.63778,8.57208 3.43739,11.17058 c 0.65178,2.11809 2.88153,3.2984 4.99952,2.64666 l 7.04882,-2.16905 c 2.11799,-0.65174 3.29843,-2.88143 2.64666,-4.99952 l -2.26096,-7.3475 13.29121,-4.08994 0.9259,-0.28491 c 0.0615,-0.0189 0.10934,-0.0663 0.17004,-0.085 16.22184,-5.62461 25.20596,-23.06018 20.16463,-39.55502 -0.006,-0.0199 -0.0123,-0.0399 -0.0184,-0.0597 -0.006,-0.0199 -0.0122,-0.0399 -0.0184,-0.0597 -4.01245,-12.95131 -15.5212,-21.51555 -28.31318,-22.41419 -7.93483,-10.07377 -21.4877,-14.7767 -34.45425,-10.81375 -0.0199,0.006 -0.0399,0.0123 -0.0597,0.0184 -0.0199,0.006 -0.0399,0.0122 -0.0597,0.0184 z m -9.01533,10.22888 c 2.33285,-0.71786 4.8193,0.57344 5.53715,2.90627 0.71786,2.33283 -0.60328,4.82848 -2.93613,5.54634 -2.33285,0.71786 -4.79862,-0.6125 -5.51648,-2.94533 -0.71785,-2.33282 0.58261,-4.78942 2.91546,-5.50728 z m 22.34117,-6.87478 c 2.33285,-0.71786 4.78944,0.58263 5.50729,2.91546 0.71785,2.33283 -0.57342,4.81929 -2.90627,5.53715 -2.33285,0.71786 -4.82849,-0.6033 -5.54634,-2.93613 -0.71785,-2.33283 0.61248,-4.79862 2.94532,-5.51648 z m 15.74534,11.11057 c 2.33411,-0.71825 4.8281,0.60202 5.54635,2.93613 0.71825,2.33411 -0.61122,4.79823 -2.94533,5.51648 -2.33411,0.71824 -4.78903,-0.58135 -5.50728,-2.91546 -0.71825,-2.33411 0.57215,-4.81891 2.90626,-5.53715 z m -44.80641,13.9839 c 2.33411,-0.71824 4.78904,0.58135 5.50729,2.91546 0.71825,2.33411 -0.57216,4.81891 -2.90627,5.53715 -2.33411,0.71825 -4.82809,-0.60202 -5.54634,-2.93613 -0.71825,-2.33411 0.61121,-4.79823 2.94532,-5.51648 z m 62.88596,-7.18818 c 2.33283,-0.71786 4.78943,0.5826 5.50728,2.91545 0.71786,2.33285 -0.57343,4.8193 -2.90626,5.53716 -2.33283,0.71785 -4.82849,-0.60329 -5.54635,-2.93614 -0.71785,-2.33285 0.6125,-4.79862 2.94533,-5.51647 z m -58.56161,22.72868 c 2.33256,-0.71777 4.78943,0.58263 5.50728,2.91546 0.71786,2.33283 -0.5737,4.81938 -2.90626,5.53715 -2.33304,0.71792 -4.82849,-0.6033 -5.54635,-2.93613 -0.71785,-2.33283 0.61229,-4.79856 2.94533,-5.51648 z m 65.4272,-0.41738 c 2.33283,-0.71785 4.79861,0.61248 5.51647,2.94533 0.71786,2.33285 -0.58263,4.78943 -2.91545,5.50728 -2.33283,0.71785 -4.8193,-0.57342 -5.53716,-2.90626 -0.71786,-2.33285 0.60331,-4.8285 2.93614,-5.54635 z m -11.28058,15.83035 c 2.33411,-0.71824 4.78903,0.58135 5.50728,2.91546 0.71825,2.33411 -0.57215,4.81891 -2.90627,5.53715 -2.33411,0.71825 -4.82809,-0.60202 -5.54634,-2.93613 -0.71825,-2.33411 0.61122,-4.79823 2.94533,-5.51648 z m -15.28316,5.16065 c 2.33283,-0.71786 4.78952,0.58289 5.50729,2.91546 0.71792,2.33303 -0.57344,4.81929 -2.90627,5.53715 -2.33283,0.71785 -4.82842,-0.6031 -5.54634,-2.93614 -0.71777,-2.33256 0.61249,-4.79862 2.94532,-5.51647 z"
         style="fill:#af178c;fill-opacity:1;stroke:none" />
      <path
         clip-path="url(#clipPath5557)"
         style="fill:#ffffff;fill-opacity:1;stroke:none"
         d="m 919.77141,826.60672 c 3.54214,-0.40788 4.85473,-0.26871 8.43019,-0.0997 3.57547,0.16899 2.58555,3.91543 3.61133,8.8409 1.02577,4.92546 2.03041,18.2492 3.23893,18.56853 1.20853,0.31934 6.99274,-19.61445 7.6314,-22.0315 0.63865,-2.41704 0.169,-3.57546 5.01686,-3.32884 4.84785,0.2466 9.92364,1.58778 8.35453,5.56904 -1.56912,3.98126 -18.47048,39.57846 -29.22468,49.23038 -10.71458,9.61633 -25.43042,9.49534 -44.0691,7.10265 -11.78778,-1.51322 -20.37322,-8.75694 -26.54358,-9.87015 -6.17036,-1.11319 -9.52564,-1.04864 -12.58122,2.61176 -2.74233,3.28513 -3.76583,9.9534 2.19918,12.82243 5.96501,2.86902 9.13959,-3.27383 9.13959,-3.27383 0,0 -2.98779,2.00427 -5.60048,1.62317 -2.84758,-0.41537 -4.78841,-2.42885 -3.7027,-6.53784 1.08571,-4.10897 3.78711,-4.49053 7.23788,-3.90559 4.09491,0.69416 7.19192,3.94431 6.07406,8.32801 -1.02356,4.01395 -5.4947,8.32821 -15.95246,7.3495 -9.79951,-0.9171 -16.51704,-5.81445 -12.16685,-22.27822 2.26743,-8.58138 9.23112,-13.6307 19.69797,-12.89584 19.46093,1.36633 17.40133,13.93009 34.65003,18.30625 16.95712,4.30217 29.40621,1.72245 35.10673,-3.21261 5.24725,-4.54264 7.81604,-9.98934 7.89097,-15.37741 0.10551,-7.58609 -3.57327,-13.14609 -10.03767,-29.04258 -1.0143,-2.49424 -1.94307,-8.09059 1.59862,-8.49857 z"
         id="path5553"
         inkscape:connector-curvature="0"
         sodipodi:nodetypes="cssssssssssscssssssssssszc" />
      <g
         transform="matrix(0.74420025,-0.04322537,0.04322537,0.74420025,159.31256,250.58656)"
         style="fill:#ffffff;fill-opacity:1"
         id="g5731">
        <path
           style="fill:#ffffff;fill-opacity:1;stroke:none"
           d="m 816.99218,781.592 c 0,0 2.53907,0 5.27344,0 2.73438,0 4.00391,1.36719 4.00391,4.00391 0,2.63672 0,15.52734 0,17.87109 0,2.34375 0.0977,3.71094 2.63672,3.71094 2.53906,0 -0.58595,0 2.53905,0 3.125,0 4.49219,-0.58594 4.49219,2.92968 0,1.95313 0.0472,3.58268 -4.17562,3.58268 -4.22282,0 -9.30094,0 -12.42594,0 -3.125,0 -5.59099,-0.33419 -5.59099,-3.22797 0,-2.89377 0,-19.69064 0,-23.01095 0,-3.32032 0.70818,-5.85938 3.24724,-5.85938 z"
           id="path5715"
           inkscape:connector-curvature="0"
           sodipodi:nodetypes="cssssssssssc" />
        <path
           style="fill:#ffffff;fill-opacity:1;stroke:none"
           d="m 841.40626,799.29349 c 0,0 2.14844,0 3.71094,0 1.5625,0 2.83203,0.39062 2.83203,2.83203 0,2.4414 0,8.49609 0,9.86328 0,1.36719 -0.91371,1.7015 -2.94709,1.7015 -2.03338,0 -1.64276,0 -3.40057,0 -1.75781,0 -2.90153,-0.58594 -2.90153,-2.90153 0,-2.3156 0,-8.17497 0,-9.54216 0,-1.36719 1.14368,-1.95312 2.70622,-1.95312 z"
           id="path5717"
           inkscape:connector-curvature="0"
           sodipodi:nodetypes="csssssssc" />
        <path
           sodipodi:type="arc"
           style="fill:#ffffff;fill-opacity:1;stroke:none"
           id="path5719"
           sodipodi:cx="846.48438"
           sodipodi:cy="217.98828"
           sodipodi:rx="3.7109375"
           sodipodi:ry="3.7109375"
           d="m 850.19531,217.98828 c 0,2.0495 -1.66144,3.71094 -3.71094,3.71094 -2.04949,0 -3.71093,-1.66144 -3.71093,-3.71094 0,-2.04949 1.66144,-3.71094 3.71093,-3.71094 2.0495,0 3.71094,1.66145 3.71094,3.71094 z"
           transform="translate(-3.125,573.72937)" />
        <path
           style="fill:#ffffff;fill-opacity:1;stroke:none"
           d="m 854.98695,784.00528 c 0,0 11.99873,0 14.18898,0 2.19024,0 3.24196,0.47964 3.24196,1.94087 0,1.46122 0,1.46122 0,2.60396 0,1.14274 0.0668,2.00754 -1.15906,2.00754 -1.22586,0 -3.89224,0 -4.74929,0 -0.85705,0 -1.71023,0.3809 -1.71023,1.71023 0,1.32932 0,16.08966 0,18.75604 0,2.66638 -0.31339,2.66638 -1.53944,2.66638 -1.22605,0 -1.60696,0 -3.13061,0 -1.52365,0 -2.09501,0 -2.09501,-2.09502 0,-2.09501 0,-17.90286 0,-19.04559 0,-1.14274 -0.6666,-1.85695 -1.85695,-1.85695 -1.19035,0 -2.90446,0 -4.52333,0 -1.61888,0 -2.21405,-0.66659 -2.21405,-2.21405 0,-1.54745 0,-1.73791 0,-2.59496 0,-0.85706 0.84594,-1.87845 2.05375,-1.87845 1.20781,0 3.49328,0 3.49328,0 z"
           id="path5723"
           inkscape:connector-curvature="0"
           sodipodi:nodetypes="cssssssssssssssssc" />
        <path
           sodipodi:nodetypes="cssssssssssssssssc"
           inkscape:connector-curvature="0"
           id="path5725"
           d="m 880.80171,784.00528 c 0,0 11.99873,0 14.18898,0 2.19024,0 3.24196,0.47964 3.24196,1.94087 0,1.46122 0,1.46122 0,2.60396 0,1.14274 0.0668,2.00754 -1.15906,2.00754 -1.22586,0 -3.89224,0 -4.74929,0 -0.85705,0 -1.71023,0.3809 -1.71023,1.71023 0,1.32932 0,16.08966 0,18.75604 0,2.66638 -0.31339,2.66638 -1.53944,2.66638 -1.22605,0 -1.60696,0 -3.13061,0 -1.52365,0 -2.09501,0 -2.09501,-2.09502 0,-2.09501 0,-17.90286 0,-19.04559 0,-1.14274 -0.6666,-1.85695 -1.85695,-1.85695 -1.19035,0 -2.90446,0 -4.52333,0 -1.61888,0 -2.21405,-0.66659 -2.21405,-2.21405 0,-1.54745 0,-1.73791 0,-2.59496 0,-0.85706 0.84594,-1.87845 2.05375,-1.87845 1.20781,0 3.49328,0 3.49328,0 z"
           style="fill:#ffffff;fill-opacity:1;stroke:none" />
        <path
           sodipodi:nodetypes="cssssssssssc"
           inkscape:connector-curvature="0"
           id="path5727"
           d="m 904.69324,781.592 c 0,0 2.53907,0 5.27344,0 2.73438,0 4.00391,1.36719 4.00391,4.00391 0,2.63672 0,15.52734 0,17.87109 0,2.34375 0.0977,3.71094 2.63672,3.71094 2.53906,0 -0.58595,0 2.53905,0 3.125,0 4.49219,-0.58594 4.49219,2.92968 0,1.95313 0.0472,3.58268 -4.17562,3.58268 -4.22282,0 -9.30094,0 -12.42594,0 -3.125,0 -5.59099,-0.33419 -5.59099,-3.22797 0,-2.89377 0,-19.69064 0,-23.01095 0,-3.32032 0.70818,-5.85938 3.24724,-5.85938 z"
           style="fill:#ffffff;fill-opacity:1;stroke:none" />
        <path
           style="fill:#ffffff;fill-opacity:1;stroke:none"
           d="m 932.29934,781.46374 c 17.1875,0 7.80215,0 12.88028,0 5.07812,0 4.91133,0.73217 4.91133,3.00281 0,2.27063 0,3.4425 0,5.78625 0,2.34375 -2.00232,2.11263 -4.91133,2.11263 -2.90902,0 -0.96622,0 -3.7006,0 -2.73437,0 -2.76838,0.78125 -2.76838,2.65462 0,1.87338 -0.15795,3.35237 1.59819,3.35237 1.75613,0 -0.197,0 2.14675,0 2.34375,0 2.54205,0.76378 2.54205,2.27912 0,1.51534 0.0472,2.32166 -2.51697,2.32166 -2.56414,0 -1.19695,0 -2.36883,0 -1.17187,0 -1.40119,0.78085 -1.40119,2.62398 0,1.84313 0,1.06187 0,2.42906 0,1.36718 1.17018,1.23849 4.50834,1.23849 3.92411,0 1.50323,0 4.04229,0 2.53906,0 2.82968,0.96978 2.82968,2.40471 0,1.43493 -1.22612,2.02086 -2.82968,2.02086 -1.60356,0 -10.86037,0 -14.18068,0 -3.32031,0 -5.18442,-0.32239 -5.18442,-2.99323 0,-2.67083 0,-24.54583 0,-26.69427 0,-2.14843 0.69223,-2.53906 4.40317,-2.53906 z"
           id="path5729"
           inkscape:connector-curvature="0"
           sodipodi:nodetypes="ssssssssssssssssssssss" />
      </g>
    </g>
    <g
       id="g6298"
       transform="translate(2.0549927,-4.7787502)">
      <text
         xml:space="preserve"
         style="font-size:40px;font-style:normal;font-variant:normal;font-weight:bold;font-stretch:normal;line-height:125%;letter-spacing:0px;word-spacing:0px;fill:#ffffff;fill-opacity:1;stroke:#3a1236;stroke-width:5;stroke-miterlimit:4;stroke-opacity:1;stroke-dasharray:none;font-family:Cirno;-inkscape-font-specification:Cirno Bold"
         x="443.04657"
         y="642.46124"
         id="text6294"
         sodipodi:linespacing="125%"><tspan
           sodipodi:role="line"
           id="tspan6296"
           x="443.04657"
           y="642.46124"
           style="font-size:24px;font-style:normal;font-variant:normal;font-weight:normal;font-stretch:normal;fill:#ffffff;fill-opacity:1;stroke:#3a1236;stroke-width:5;stroke-miterlimit:4;stroke-opacity:1;stroke-dasharray:none;font-family:Equestria;-inkscape-font-specification:Equestria">Hiscore</tspan></text>
      <text
         sodipodi:linespacing="125%"
         id="text6282"
         y="642.46124"
         x="443.04657"
         style="font-size:40px;font-style:normal;font-variant:normal;font-weight:bold;font-stretch:normal;line-height:125%;letter-spacing:0px;word-spacing:0px;fill:#ffffff;fill-opacity:1;stroke:none;font-family:Cirno;-inkscape-font-specification:Cirno Bold"
         xml:space="preserve"><tspan
           style="font-size:24px;font-style:normal;font-variant:normal;font-weight:normal;font-stretch:normal;fill:#ffffff;fill-opacity:1;font-family:Equestria;-inkscape-font-specification:Equestria"
           y="642.46124"
           x="443.04657"
           id="tspan6284"
           sodipodi:role="line">Hiscore</tspan></text>
    </g>
    <g
       id="g6318"
       transform="translate(19.570313,0)">
      <text
         sodipodi:linespacing="125%"
         id="text6306"
         y="667.6825"
         x="442.5"
         style="font-size:40px;font-style:normal;font-variant:normal;font-weight:bold;font-stretch:normal;line-height:125%;letter-spacing:0px;word-spacing:0px;fill:#ffffff;fill-opacity:1;stroke:#3a1236;stroke-width:5;stroke-miterlimit:4;stroke-opacity:1;stroke-dasharray:none;font-family:Cirno;-inkscape-font-specification:Cirno Bold"
         xml:space="preserve"><tspan
           style="font-size:24px;font-style:normal;font-variant:normal;font-weight:normal;font-stretch:normal;fill:#ffffff;fill-opacity:1;stroke:#3a1236;stroke-width:5;stroke-miterlimit:4;stroke-opacity:1;stroke-dasharray:none;font-family:Equestria;-inkscape-font-specification:Equestria"
           y="667.6825"
           x="442.5"
           id="tspan6308"
           sodipodi:role="line">Score</tspan></text>
      <text
         xml:space="preserve"
         style="font-size:40px;font-style:normal;font-variant:normal;font-weight:bold;font-stretch:normal;line-height:125%;letter-spacing:0px;word-spacing:0px;fill:#ffffff;fill-opacity:1;stroke:none;font-family:Cirno;-inkscape-font-specification:Cirno Bold"
         x="442.5"
         y="667.6825"
         id="text6310"
         sodipodi:linespacing="125%"><tspan
           sodipodi:role="line"
           id="tspan6312"
           x="442.5"
           y="667.6825"
           style="font-size:24px;font-style:normal;font-variant:normal;font-weight:normal;font-stretch:normal;fill:#ffffff;fill-opacity:1;font-family:Equestria;-inkscape-font-specification:Equestria">Score</tspan></text>
    </g>
    <g
       id="g6342"
       transform="translate(-18.75,-3.125)">
      <text
         xml:space="preserve"
         style="font-size:40px;font-style:normal;font-variant:normal;font-weight:bold;font-stretch:normal;line-height:125%;letter-spacing:0px;word-spacing:0px;fill:#ffffff;fill-opacity:1;stroke:#3a1236;stroke-width:5;stroke-miterlimit:4;stroke-opacity:1;stroke-dasharray:none;font-family:Cirno;-inkscape-font-specification:Cirno Bold"
         x="459.46875"
         y="717.6825"
         id="text6326"
         sodipodi:linespacing="125%"><tspan
           sodipodi:role="line"
           id="tspan6328"
           x="459.46875"
           y="717.6825"
           style="font-size:24px;font-style:normal;font-variant:normal;font-weight:normal;font-stretch:normal;fill:#ffffff;fill-opacity:1;stroke:#3a1236;stroke-width:5;stroke-miterlimit:4;stroke-opacity:1;stroke-dasharray:none;font-family:Equestria;-inkscape-font-specification:Equestria">Player</tspan></text>
      <text
         sodipodi:linespacing="125%"
         id="text6330"
         y="717.6825"
         x="459.46875"
         style="font-size:40px;font-style:normal;font-variant:normal;font-weight:bold;font-stretch:normal;line-height:125%;letter-spacing:0px;word-spacing:0px;fill:#ffffff;fill-opacity:1;stroke:none;font-family:Cirno;-inkscape-font-specification:Cirno Bold"
         xml:space="preserve"><tspan
           style="font-size:24px;font-style:normal;font-variant:normal;font-weight:normal;font-stretch:normal;fill:#ffffff;fill-opacity:1;font-family:Equestria;-inkscape-font-specification:Equestria"
           y="717.6825"
           x="459.46875"
           id="tspan6332"
           sodipodi:role="line">Player</tspan></text>
    </g>
    <g
       id="g6348"
       transform="translate(6.84375,25.937497)">
      <text
         sodipodi:linespacing="125%"
         id="text6350"
         y="717.6825"
         x="459.46875"
         style="font-size:40px;font-style:normal;font-variant:normal;font-weight:bold;font-stretch:normal;line-height:125%;letter-spacing:0px;word-spacing:0px;fill:#ffffff;fill-opacity:1;stroke:#3a1236;stroke-width:5;stroke-miterlimit:4;stroke-opacity:1;stroke-dasharray:none;font-family:Cirno;-inkscape-font-specification:Cirno Bold"
         xml:space="preserve"><tspan
           style="font-size:24px;font-style:normal;font-variant:normal;font-weight:normal;font-stretch:normal;fill:#ffffff;fill-opacity:1;stroke:#3a1236;stroke-width:5;stroke-miterlimit:4;stroke-opacity:1;stroke-dasharray:none;font-family:Equestria;-inkscape-font-specification:Equestria"
           y="717.6825"
           x="459.46875"
           id="tspan6352"
           sodipodi:role="line">Bomb</tspan></text>
      <text
         xml:space="preserve"
         style="font-size:40px;font-style:normal;font-variant:normal;font-weight:bold;font-stretch:normal;line-height:125%;letter-spacing:0px;word-spacing:0px;fill:#ffffff;fill-opacity:1;stroke:none;font-family:Cirno;-inkscape-font-specification:Cirno Bold"
         x="459.46875"
         y="717.6825"
         id="text6354"
         sodipodi:linespacing="125%"><tspan
           sodipodi:role="line"
           id="tspan6356"
           x="459.46875"
           y="717.6825"
           style="font-size:24px;font-style:normal;font-variant:normal;font-weight:normal;font-stretch:normal;fill:#ffffff;fill-opacity:1;font-family:Equestria;-inkscape-font-specification:Equestria">Bomb</tspan></text>
    </g>
    <g
       transform="translate(-9.375,52.812497)"
       id="g6358">
      <text
         xml:space="preserve"
         style="font-size:40px;font-style:normal;font-variant:normal;font-weight:bold;font-stretch:normal;line-height:125%;letter-spacing:0px;word-spacing:0px;fill:#ffffff;fill-opacity:1;stroke:#3a1236;stroke-width:5;stroke-miterlimit:4;stroke-opacity:1;stroke-dasharray:none;font-family:Cirno;-inkscape-font-specification:Cirno Bold"
         x="459.46875"
         y="717.6825"
         id="text6360"
         sodipodi:linespacing="125%"><tspan
           sodipodi:role="line"
           id="tspan6362"
           x="459.46875"
           y="717.6825"
           style="font-size:24px;font-style:normal;font-variant:normal;font-weight:normal;font-stretch:normal;fill:#ffffff;fill-opacity:1;stroke:#3a1236;stroke-width:5;stroke-miterlimit:4;stroke-opacity:1;stroke-dasharray:none;font-family:Equestria;-inkscape-font-specification:Equestria">Power</tspan></text>
      <text
         sodipodi:linespacing="125%"
         id="text6364"
         y="717.6825"
         x="459.46875"
         style="font-size:40px;font-style:normal;font-variant:normal;font-weight:bold;font-stretch:normal;line-height:125%;letter-spacing:0px;word-spacing:0px;fill:#ffffff;fill-opacity:1;stroke:none;font-family:Cirno;-inkscape-font-specification:Cirno Bold"
         xml:space="preserve"><tspan
           style="font-size:24px;font-style:normal;font-variant:normal;font-weight:normal;font-stretch:normal;fill:#ffffff;fill-opacity:1;font-family:Equestria;-inkscape-font-specification:Equestria"
           y="717.6825"
           x="459.46875"
           id="tspan6366"
           sodipodi:role="line">Power</tspan></text>
    </g>
    <g
       id="g6368"
       transform="translate(-5.1328125,79.999997)">
      <text
         sodipodi:linespacing="125%"
         id="text6370"
         y="717.6825"
         x="459.46875"
         style="font-size:40px;font-style:normal;font-variant:normal;font-weight:bold;font-stretch:normal;line-height:125%;letter-spacing:0px;word-spacing:0px;fill:#ffffff;fill-opacity:1;stroke:#3a1236;stroke-width:5;stroke-miterlimit:4;stroke-opacity:1;stroke-dasharray:none;font-family:Cirno;-inkscape-font-specification:Cirno Bold"
         xml:space="preserve"><tspan
           style="font-size:24px;font-style:normal;font-variant:normal;font-weight:normal;font-stretch:normal;fill:#ffffff;fill-opacity:1;stroke:#3a1236;stroke-width:5;stroke-miterlimit:4;stroke-opacity:1;stroke-dasharray:none;font-family:Equestria;-inkscape-font-specification:Equestria"
           y="717.6825"
           x="459.46875"
           sodipodi:role="line"
           id="tspan6378">Graze</tspan></text>
      <text
         xml:space="preserve"
         style="font-size:40px;font-style:normal;font-variant:normal;font-weight:bold;font-stretch:normal;line-height:125%;letter-spacing:0px;word-spacing:0px;fill:#ffffff;fill-opacity:1;stroke:none;font-family:Cirno;-inkscape-font-specification:Cirno Bold"
         x="459.46875"
         y="717.6825"
         id="text6374"
         sodipodi:linespacing="125%"><tspan
           sodipodi:role="line"
           id="tspan6376"
           x="459.46875"
           y="717.6825"
           style="font-size:24px;font-style:normal;font-variant:normal;font-weight:normal;font-stretch:normal;fill:#ffffff;fill-opacity:1;font-family:Equestria;-inkscape-font-specification:Equestria">Graze</tspan></text>
    </g>
  </g>
</svg>
